<?xml version="1.0" encoding="UTF-8" standalone="no"?><svg xmlns="http://www.w3.org/2000/svg" xmlns:xlink="http://www.w3.org/1999/xlink" clip-rule="evenodd" stroke-miterlimit="10" viewBox="0 0 1024 768"><desc>SVG generated by Keynote</desc><defs></defs><g transform="matrix(1.00, 0.00, -0.00, -1.00, 0.0, 768.0)"><path d="M 0.0 768.0 L 1024.0 768.0 L 1024.0 0.0 L 0.0 0.0 Z M 0.0 768.0 " fill="#52575F"></path><text xml:space="preserve" font-family="Monaco,Monaco" font-size="47.0" fill="#FEFFFF" transform="matrix(1.00, 0.00, -0.00, -1.00, 41.0, 595.4)">{</text><text xml:space="preserve" font-family="Monaco,Monaco" font-size="47.0" fill="#FEFFFF" transform="matrix(1.00, 0.00, -0.00, -1.00, 69.2, 595.4)">	</text><text xml:space="preserve" font-family="Monaco,Monaco" font-size="47.0" fill="#FEFFFF" transform="matrix(1.00, 0.00, -0.00, -1.00, 41.0, 532.4)"> </text><text xml:space="preserve" font-family="Monaco,Monaco" font-size="47.0" fill="#D35854" transform="matrix(1.00, 0.00, -0.00, -1.00, 69.2, 532.4)">“</text><text xml:space="preserve" font-family="Monaco,Monaco" font-size="47.0" fill="#D35854" transform="matrix(1.00, 0.00, -0.00, -1.00, 97.4, 532.4)">n</text><text xml:space="preserve" font-family="Monaco,Monaco" font-size="47.0" fill="#D35854" transform="matrix(1.00, 0.00, -0.00, -1.00, 125.6, 532.4)">a</text><text xml:space="preserve" font-family="Monaco,Monaco" font-size="47.0" fill="#D35854" transform="matrix(1.00, 0.00, -0.00, -1.00, 153.8, 532.4)">m</text><text xml:space="preserve" font-family="Monaco,Monaco" font-size="47.0" fill="#D35854" transform="matrix(1.00, 0.00, -0.00, -1.00, 182.0, 532.4)">e</text><text xml:space="preserve" font-family="Monaco,Monaco" font-size="47.0" fill="#D35854" transform="matrix(1.00, 0.00, -0.00, -1.00, 210.3, 532.4)">”</text><text xml:space="preserve" font-family="Monaco,Monaco" font-size="47.0" fill="#FEFFFF" transform="matrix(1.00, 0.00, -0.00, -1.00, 238.4, 532.4)">:</text><text xml:space="preserve" font-family="Monaco,Monaco" font-size="47.0" fill="#FEFFFF" transform="matrix(1.00, 0.00, -0.00, -1.00, 266.6, 532.4)"> </text><text xml:space="preserve" font-family="Monaco,Monaco" font-size="47.0" fill="#7ADA45" transform="matrix(1.00, 0.00, -0.00, -1.00, 294.8, 532.4)">“</text><text xml:space="preserve" font-family="Monaco,Monaco" font-size="47.0" fill="#7ADA45" transform="matrix(1.00, 0.00, -0.00, -1.00, 323.1, 532.4)">A</text><text xml:space="preserve" font-family="Monaco,Monaco" font-size="47.0" fill="#7ADA45" transform="matrix(1.00, 0.00, -0.00, -1.00, 351.3, 532.4)">w</text><text xml:space="preserve" font-family="Monaco,Monaco" font-size="47.0" fill="#7ADA45" transform="matrix(1.00, 0.00, -0.00, -1.00, 379.5, 532.4)">e</text><text xml:space="preserve" font-family="Monaco,Monaco" font-size="47.0" fill="#7ADA45" transform="matrix(1.00, 0.00, -0.00, -1.00, 407.7, 532.4)">s</text><text xml:space="preserve" font-family="Monaco,Monaco" font-size="47.0" fill="#7ADA45" transform="matrix(1.00, 0.00, -0.00, -1.00, 435.9, 532.4)">o</text><text xml:space="preserve" font-family="Monaco,Monaco" font-size="47.0" fill="#7ADA45" transform="matrix(1.00, 0.00, -0.00, -1.00, 464.1, 532.4)">m</text><text xml:space="preserve" font-family="Monaco,Monaco" font-size="47.0" fill="#7ADA45" transform="matrix(1.00, 0.00, -0.00, -1.00, 492.3, 532.4)">e</text><text xml:space="preserve" font-family="Monaco,Monaco" font-size="47.0" fill="#7ADA45" transform="matrix(1.00, 0.00, -0.00, -1.00, 520.5, 532.4)">A</text><text xml:space="preserve" font-family="Monaco,Monaco" font-size="47.0" fill="#7ADA45" transform="matrix(1.00, 0.00, -0.00, -1.00, 548.7, 532.4)">p</text><text xml:space="preserve" font-family="Monaco,Monaco" font-size="47.0" fill="#7ADA45" transform="matrix(1.00, 0.00, -0.00, -1.00, 576.9, 532.4)">p</text><text xml:space="preserve" font-family="Monaco,Monaco" font-size="47.0" fill="#7ADA45" transform="matrix(1.00, 0.00, -0.00, -1.00, 605.1, 532.4)">”</text><text xml:space="preserve" font-family="Monaco,Monaco" font-size="47.0" fill="#FEFFFF" transform="matrix(1.00, 0.00, -0.00, -1.00, 633.3, 532.4)">,</text><text xml:space="preserve" font-family="Monaco,Monaco" font-size="47.0" fill="#FEFFFF" transform="matrix(1.00, 0.00, -0.00, -1.00, 661.5, 532.4)">	</text><text xml:space="preserve" font-family="Monaco,Monaco" font-size="47.0" fill="#FEFFFF" transform="matrix(1.00, 0.00, -0.00, -1.00, 41.0, 469.4)"> </text><text xml:space="preserve" font-family="Monaco,Monaco" font-size="47.0" fill="#D35854" transform="matrix(1.00, 0.00, -0.00, -1.00, 69.2, 469.4)">“</text><text xml:space="preserve" font-family="Monaco,Monaco" font-size="47.0" fill="#D35854" transform="matrix(1.00, 0.00, -0.00, -1.00, 97.4, 469.4)">d</text><text xml:space="preserve" font-family="Monaco,Monaco" font-size="47.0" fill="#D35854" transform="matrix(1.00, 0.00, -0.00, -1.00, 125.6, 469.4)">e</text><text xml:space="preserve" font-family="Monaco,Monaco" font-size="47.0" fill="#D35854" transform="matrix(1.00, 0.00, -0.00, -1.00, 153.8, 469.4)">s</text><text xml:space="preserve" font-family="Monaco,Monaco" font-size="47.0" fill="#D35854" transform="matrix(1.00, 0.00, -0.00, -1.00, 182.0, 469.4)">c</text><text xml:space="preserve" font-family="Monaco,Monaco" font-size="47.0" fill="#D35854" transform="matrix(1.00, 0.00, -0.00, -1.00, 210.3, 469.4)">r</text><text xml:space="preserve" font-family="Monaco,Monaco" font-size="47.0" fill="#D35854" transform="matrix(1.00, 0.00, -0.00, -1.00, 238.5, 469.4)">i</text><text xml:space="preserve" font-family="Monaco,Monaco" font-size="47.0" fill="#D35854" transform="matrix(1.00, 0.00, -0.00, -1.00, 266.7, 469.4)">p</text><text xml:space="preserve" font-family="Monaco,Monaco" font-size="47.0" fill="#D35854" transform="matrix(1.00, 0.00, -0.00, -1.00, 294.9, 469.4)">t</text><text xml:space="preserve" font-family="Monaco,Monaco" font-size="47.0" fill="#D35854" transform="matrix(1.00, 0.00, -0.00, -1.00, 323.1, 469.4)">i</text><text xml:space="preserve" font-family="Monaco,Monaco" font-size="47.0" fill="#D35854" transform="matrix(1.00, 0.00, -0.00, -1.00, 351.3, 469.4)">o</text><text xml:space="preserve" font-family="Monaco,Monaco" font-size="47.0" fill="#D35854" transform="matrix(1.00, 0.00, -0.00, -1.00, 379.5, 469.4)">n</text><text xml:space="preserve" font-family="Monaco,Monaco" font-size="47.0" fill="#D35854" transform="matrix(1.00, 0.00, -0.00, -1.00, 407.7, 469.4)">”</text><text xml:space="preserve" font-family="Monaco,Monaco" font-size="47.0" fill="#FEFFFF" transform="matrix(1.00, 0.00, -0.00, -1.00, 435.9, 469.4)">:</text><text xml:space="preserve" font-family="Monaco,Monaco" font-size="47.0" fill="#FEFFFF" transform="matrix(1.00, 0.00, -0.00, -1.00, 464.1, 469.4)"> </text><text xml:space="preserve" font-family="Monaco,Monaco" font-size="47.0" fill="#7ADA45" transform="matrix(1.00, 0.00, -0.00, -1.00, 492.3, 469.4)">“</text><text xml:space="preserve" font-family="Monaco,Monaco" font-size="47.0" fill="#7ADA45" transform="matrix(1.00, 0.00, -0.00, -1.00, 520.5, 469.4)">A</text><text xml:space="preserve" font-family="Monaco,Monaco" font-size="47.0" fill="#7ADA45" transform="matrix(1.00, 0.00, -0.00, -1.00, 548.7, 469.4)"> </text><text xml:space="preserve" font-family="Monaco,Monaco" font-size="47.0" fill="#7ADA45" transform="matrix(1.00, 0.00, -0.00, -1.00, 576.9, 469.4)">c</text><text xml:space="preserve" font-family="Monaco,Monaco" font-size="47.0" fill="#7ADA45" transform="matrix(1.00, 0.00, -0.00, -1.00, 605.1, 469.4)">o</text><text xml:space="preserve" font-family="Monaco,Monaco" font-size="47.0" fill="#7ADA45" transform="matrix(1.00, 0.00, -0.00, -1.00, 633.3, 469.4)">o</text><text xml:space="preserve" font-family="Monaco,Monaco" font-size="47.0" fill="#7ADA45" transform="matrix(1.00, 0.00, -0.00, -1.00, 661.5, 469.4)">l</text><text xml:space="preserve" font-family="Monaco,Monaco" font-size="47.0" fill="#7ADA45" transform="matrix(1.00, 0.00, -0.00, -1.00, 689.7, 469.4)"> </text><text xml:space="preserve" font-family="Monaco,Monaco" font-size="47.0" fill="#7ADA45" transform="matrix(1.00, 0.00, -0.00, -1.00, 717.9, 469.4)">a</text><text xml:space="preserve" font-family="Monaco,Monaco" font-size="47.0" fill="#7ADA45" transform="matrix(1.00, 0.00, -0.00, -1.00, 746.2, 469.4)">p</text><text xml:space="preserve" font-family="Monaco,Monaco" font-size="47.0" fill="#7ADA45" transform="matrix(1.00, 0.00, -0.00, -1.00, 774.4, 469.4)">p</text><text xml:space="preserve" font-family="Monaco,Monaco" font-size="47.0" fill="#7ADA45" transform="matrix(1.00, 0.00, -0.00, -1.00, 802.6, 469.4)">”</text><text xml:space="preserve" font-family="Monaco,Monaco" font-size="47.0" fill="#FEFFFF" transform="matrix(1.00, 0.00, -0.00, -1.00, 830.7, 469.4)">,</text><text xml:space="preserve" font-family="Monaco,Monaco" font-size="47.0" fill="#FEFFFF" transform="matrix(1.00, 0.00, -0.00, -1.00, 858.9, 469.4)">	</text><text xml:space="preserve" font-family="Monaco,Monaco" font-size="47.0" fill="#FEFFFF" transform="matrix(1.00, 0.00, -0.00, -1.00, 41.0, 406.4)"> </text><text xml:space="preserve" font-family="Monaco,Monaco" font-size="47.0" fill="#D35854" transform="matrix(1.00, 0.00, -0.00, -1.00, 69.2, 406.4)">“</text><text xml:space="preserve" font-family="Monaco,Monaco" font-size="47.0" fill="#D35854" transform="matrix(1.00, 0.00, -0.00, -1.00, 97.4, 406.4)">i</text><text xml:space="preserve" font-family="Monaco,Monaco" font-size="47.0" fill="#D35854" transform="matrix(1.00, 0.00, -0.00, -1.00, 125.6, 406.4)">c</text><text xml:space="preserve" font-family="Monaco,Monaco" font-size="47.0" fill="#D35854" transform="matrix(1.00, 0.00, -0.00, -1.00, 153.8, 406.4)">o</text><text xml:space="preserve" font-family="Monaco,Monaco" font-size="47.0" fill="#D35854" transform="matrix(1.00, 0.00, -0.00, -1.00, 182.0, 406.4)">n</text><text xml:space="preserve" font-family="Monaco,Monaco" font-size="47.0" fill="#D35854" transform="matrix(1.00, 0.00, -0.00, -1.00, 210.3, 406.4)">s</text><text xml:space="preserve" font-family="Monaco,Monaco" font-size="47.0" fill="#D35854" transform="matrix(1.00, 0.00, -0.00, -1.00, 238.5, 406.4)">”</text><text xml:space="preserve" font-family="Monaco,Monaco" font-size="47.0" fill="#FEFFFF" transform="matrix(1.00, 0.00, -0.00, -1.00, 266.6, 406.4)">:</text><text xml:space="preserve" font-family="Monaco,Monaco" font-size="47.0" fill="#FEFFFF" transform="matrix(1.00, 0.00, -0.00, -1.00, 294.8, 406.4)"> </text><text xml:space="preserve" font-family="Monaco,Monaco" font-size="47.0" fill="#FEFFFF" transform="matrix(1.00, 0.00, -0.00, -1.00, 323.1, 406.4)">[</text><text xml:space="preserve" font-family="Monaco,Monaco" font-size="47.0" fill="#FEFFFF" transform="matrix(1.00, 0.00, -0.00, -1.00, 351.3, 406.4)">	</text><text xml:space="preserve" font-family="Monaco,Monaco" font-size="47.0" fill="#FEFFFF" transform="matrix(1.00, 0.00, -0.00, -1.00, 41.0, 343.4)"> </text><text xml:space="preserve" font-family="Monaco,Monaco" font-size="47.0" fill="#FEFFFF" transform="matrix(1.00, 0.00, -0.00, -1.00, 69.2, 343.4)"> </text><text xml:space="preserve" font-family="Monaco,Monaco" font-size="47.0" fill="#FEFFFF" transform="matrix(1.00, 0.00, -0.00, -1.00, 97.4, 343.4)"> </text><text xml:space="preserve" font-family="Monaco,Monaco" font-size="47.0" fill="#E7A432" transform="matrix(1.00, 0.00, -0.00, -1.00, 125.6, 343.4)">“</text><text xml:space="preserve" font-family="Monaco,Monaco" font-size="47.0" fill="#E7A432" transform="matrix(1.00, 0.00, -0.00, -1.00, 153.8, 343.4)">1</text><text xml:space="preserve" font-family="Monaco,Monaco" font-size="47.0" fill="#E7A432" transform="matrix(1.00, 0.00, -0.00, -1.00, 182.0, 343.4)">2</text><text xml:space="preserve" font-family="Monaco,Monaco" font-size="47.0" fill="#E7A432" transform="matrix(1.00, 0.00, -0.00, -1.00, 210.2, 343.4)">8</text><text xml:space="preserve" font-family="Monaco,Monaco" font-size="47.0" fill="#E7A432" transform="matrix(1.00, 0.00, -0.00, -1.00, 238.5, 343.4)">”</text><text xml:space="preserve" font-family="Monaco,Monaco" font-size="47.0" fill="#FEFFFF" transform="matrix(1.00, 0.00, -0.00, -1.00, 266.6, 343.4)">:</text><text xml:space="preserve" font-family="Monaco,Monaco" font-size="47.0" fill="#FEFFFF" transform="matrix(1.00, 0.00, -0.00, -1.00, 294.8, 343.4)"> </text><text xml:space="preserve" font-family="Monaco,Monaco" font-size="47.0" fill="#8881F0" transform="matrix(1.00, 0.00, -0.00, -1.00, 323.0, 343.4)">“</text><text xml:space="preserve" font-family="Monaco,Monaco" font-size="47.0" fill="#8881F0" transform="matrix(1.00, 0.00, -0.00, -1.00, 351.3, 343.4)">/</text><text xml:space="preserve" font-family="Monaco,Monaco" font-size="47.0" fill="#8881F0" transform="matrix(1.00, 0.00, -0.00, -1.00, 379.5, 343.4)">i</text><text xml:space="preserve" font-family="Monaco,Monaco" font-size="47.0" fill="#8881F0" transform="matrix(1.00, 0.00, -0.00, -1.00, 407.7, 343.4)">m</text><text xml:space="preserve" font-family="Monaco,Monaco" font-size="47.0" fill="#8881F0" transform="matrix(1.00, 0.00, -0.00, -1.00, 435.9, 343.4)">a</text><text xml:space="preserve" font-family="Monaco,Monaco" font-size="47.0" fill="#8881F0" transform="matrix(1.00, 0.00, -0.00, -1.00, 464.1, 343.4)">g</text><text xml:space="preserve" font-family="Monaco,Monaco" font-size="47.0" fill="#8881F0" transform="matrix(1.00, 0.00, -0.00, -1.00, 492.3, 343.4)">e</text><text xml:space="preserve" font-family="Monaco,Monaco" font-size="47.0" fill="#8881F0" transform="matrix(1.00, 0.00, -0.00, -1.00, 520.5, 343.4)">s</text><text xml:space="preserve" font-family="Monaco,Monaco" font-size="47.0" fill="#8881F0" transform="matrix(1.00, 0.00, -0.00, -1.00, 548.7, 343.4)">/</text><text xml:space="preserve" font-family="Monaco,Monaco" font-size="47.0" fill="#8881F0" transform="matrix(1.00, 0.00, -0.00, -1.00, 576.9, 343.4)">1</text><text xml:space="preserve" font-family="Monaco,Monaco" font-size="47.0" fill="#8881F0" transform="matrix(1.00, 0.00, -0.00, -1.00, 605.1, 343.4)">2</text><text xml:space="preserve" font-family="Monaco,Monaco" font-size="47.0" fill="#8881F0" transform="matrix(1.00, 0.00, -0.00, -1.00, 633.3, 343.4)">8</text><text xml:space="preserve" font-family="Monaco,Monaco" font-size="47.0" fill="#8881F0" transform="matrix(1.00, 0.00, -0.00, -1.00, 661.6, 343.4)">.</text><text xml:space="preserve" font-family="Monaco,Monaco" font-size="47.0" fill="#8881F0" transform="matrix(1.00, 0.00, -0.00, -1.00, 689.8, 343.4)">p</text><text xml:space="preserve" font-family="Monaco,Monaco" font-size="47.0" fill="#8881F0" transform="matrix(1.00, 0.00, -0.00, -1.00, 718.0, 343.4)">n</text><text xml:space="preserve" font-family="Monaco,Monaco" font-size="47.0" fill="#8881F0" transform="matrix(1.00, 0.00, -0.00, -1.00, 746.2, 343.4)">g</text><text xml:space="preserve" font-family="Monaco,Monaco" font-size="47.0" fill="#8881F0" transform="matrix(1.00, 0.00, -0.00, -1.00, 774.4, 343.4)">”</text><text xml:space="preserve" font-family="Monaco,Monaco" font-size="47.0" fill="#8881F0" transform="matrix(1.00, 0.00, -0.00, -1.00, 802.6, 343.4)">,</text><text xml:space="preserve" font-family="Monaco,Monaco" font-size="47.0" fill="#8881F0" transform="matrix(1.00, 0.00, -0.00, -1.00, 830.8, 343.4)">	</text><text xml:space="preserve" font-family="Monaco,Monaco" font-size="47.0" fill="#8881F0" transform="matrix(1.00, 0.00, -0.00, -1.00, 41.0, 280.4)"> </text><text xml:space="preserve" font-family="Monaco,Monaco" font-size="47.0" fill="#8881F0" transform="matrix(1.00, 0.00, -0.00, -1.00, 69.2, 280.4)"> </text><text xml:space="preserve" font-family="Monaco,Monaco" font-size="47.0" fill="#8881F0" transform="matrix(1.00, 0.00, -0.00, -1.00, 97.4, 280.4)"> </text><text xml:space="preserve" font-family="Monaco,Monaco" font-size="47.0" fill="#8881F0" transform="matrix(1.00, 0.00, -0.00, -1.00, 125.6, 280.4)">…</text><text xml:space="preserve" font-family="Monaco,Monaco" font-size="47.0" fill="#FEFFFF" transform="matrix(1.00, 0.00, -0.00, -1.00, 153.8, 280.4)">	</text><text xml:space="preserve" font-family="Monaco,Monaco" font-size="47.0" fill="#FEFFFF" transform="matrix(1.00, 0.00, -0.00, -1.00, 41.0, 217.4)"> </text><text xml:space="preserve" font-family="Monaco,Monaco" font-size="47.0" fill="#FEFFFF" transform="matrix(1.00, 0.00, -0.00, -1.00, 69.2, 217.4)">]</text><text xml:space="preserve" font-family="Monaco,Monaco" font-size="47.0" fill="#FEFFFF" transform="matrix(1.00, 0.00, -0.00, -1.00, 97.4, 217.4)">,</text><text xml:space="preserve" font-family="Monaco,Monaco" font-size="47.0" fill="#FEFFFF" transform="matrix(1.00, 0.00, -0.00, -1.00, 125.6, 217.4)">	</text><text xml:space="preserve" font-family="Monaco,Monaco" font-size="47.0" fill="#FEFFFF" transform="matrix(1.00, 0.00, -0.00, -1.00, 41.0, 154.4)"> </text><text xml:space="preserve" font-family="Monaco,Monaco" font-size="47.0" fill="#FEFFFF" transform="matrix(1.00, 0.00, -0.00, -1.00, 69.2, 154.4)">…</text><text xml:space="preserve" font-family="Monaco,Monaco" font-size="47.0" fill="#FEFFFF" transform="matrix(1.00, 0.00, -0.00, -1.00, 97.4, 154.4)">	</text><text xml:space="preserve" font-family="Monaco,Monaco" font-size="47.0" fill="#FEFFFF" transform="matrix(1.00, 0.00, -0.00, -1.00, 41.0, 91.4)">}</text></g></svg>