<?xml version="1.0" encoding="UTF-8" standalone="no"?><svg xmlns="http://www.w3.org/2000/svg" xmlns:xlink="http://www.w3.org/1999/xlink" clip-rule="evenodd" stroke-miterlimit="10" viewBox="0 0 1024 768"><desc>SVG generated by Keynote</desc><defs></defs><g transform="matrix(1.00, 0.00, -0.00, -1.00, 0.0, 768.0)"><path d="M 0.0 768.0 L 1024.0 768.0 L 1024.0 0.0 L 0.0 0.0 Z M 0.0 768.0 " fill="#000000"></path><text xml:space="preserve" font-family="HelveticaNeue-Bold,Helvetica Neue" font-weight="bold" font-size="64.0" fill="#D35854" transform="matrix(1.00, 0.00, -0.00, -1.00, 420.7, 437.8)">H</text><text xml:space="preserve" font-family="HelveticaNeue-Bold,Helvetica Neue" font-weight="bold" font-size="64.0" fill="#D35854" transform="matrix(1.00, 0.00, -0.00, -1.00, 468.2, 437.8)">T</text><text xml:space="preserve" font-family="HelveticaNeue-Bold,Helvetica Neue" font-weight="bold" font-size="64.0" fill="#D35854" transform="matrix(1.00, 0.00, -0.00, -1.00, 507.3, 437.8)">M</text><text xml:space="preserve" font-family="HelveticaNeue-Bold,Helvetica Neue" font-weight="bold" font-size="64.0" fill="#D35854" transform="matrix(1.00, 0.00, -0.00, -1.00, 565.3, 437.8)">L</text><text xml:space="preserve" font-family="HelveticaNeue-Bold,Helvetica Neue" font-weight="bold" font-size="64.0" fill="#D35854" transform="matrix(1.00, 0.00, -0.00, -1.00, 603.3, 437.8)"> </text><text xml:space="preserve" font-family="HelveticaNeue-Bold,Helvetica Neue" font-weight="bold" font-size="64.0" fill="#7ADA45" transform="matrix(1.00, 0.00, -0.00, -1.00, 446.8, 359.8)">C</text><text xml:space="preserve" font-family="HelveticaNeue-Bold,Helvetica Neue" font-weight="bold" font-size="64.0" fill="#7ADA45" transform="matrix(1.00, 0.00, -0.00, -1.00, 494.2, 359.8)">S</text><text xml:space="preserve" font-family="HelveticaNeue-Bold,Helvetica Neue" font-weight="bold" font-size="64.0" fill="#7ADA45" transform="matrix(1.00, 0.00, -0.00, -1.00, 535.7, 359.8)">S</text><text xml:space="preserve" font-family="HelveticaNeue-Bold,Helvetica Neue" font-weight="bold" font-size="64.0" fill="#7ADA45" transform="matrix(1.00, 0.00, -0.00, -1.00, 577.2, 359.8)"> </text><text xml:space="preserve" font-family="HelveticaNeue-Bold,Helvetica Neue" font-weight="bold" font-size="64.0" fill="#8881F0" transform="matrix(1.00, 0.00, -0.00, -1.00, 350.2, 281.8)">J</text><text xml:space="preserve" font-family="HelveticaNeue-Bold,Helvetica Neue" font-weight="bold" font-size="64.0" fill="#8881F0" transform="matrix(1.00, 0.00, -0.00, -1.00, 385.8, 281.8)">a</text><text xml:space="preserve" font-family="HelveticaNeue-Bold,Helvetica Neue" font-weight="bold" font-size="64.0" fill="#8881F0" transform="matrix(1.00, 0.00, -0.00, -1.00, 422.5, 281.8)">v</text><text xml:space="preserve" font-family="HelveticaNeue-Bold,Helvetica Neue" font-weight="bold" font-size="64.0" fill="#8881F0" transform="matrix(1.00, 0.00, -0.00, -1.00, 455.8, 281.8)">a</text><text xml:space="preserve" font-family="HelveticaNeue-Bold,Helvetica Neue" font-weight="bold" font-size="64.0" fill="#8881F0" transform="matrix(1.00, 0.00, -0.00, -1.00, 492.5, 281.8)">S</text><text xml:space="preserve" font-family="HelveticaNeue-Bold,Helvetica Neue" font-weight="bold" font-size="64.0" fill="#8881F0" transform="matrix(1.00, 0.00, -0.00, -1.00, 534.0, 281.8)">c</text><text xml:space="preserve" font-family="HelveticaNeue-Bold,Helvetica Neue" font-weight="bold" font-size="64.0" fill="#8881F0" transform="matrix(1.00, 0.00, -0.00, -1.00, 570.8, 281.8)">r</text><text xml:space="preserve" font-family="HelveticaNeue-Bold,Helvetica Neue" font-weight="bold" font-size="64.0" fill="#8881F0" transform="matrix(1.00, 0.00, -0.00, -1.00, 595.7, 281.8)">i</text><text xml:space="preserve" font-family="HelveticaNeue-Bold,Helvetica Neue" font-weight="bold" font-size="64.0" fill="#8881F0" transform="matrix(1.00, 0.00, -0.00, -1.00, 612.2, 281.8)">p</text><text xml:space="preserve" font-family="HelveticaNeue-Bold,Helvetica Neue" font-weight="bold" font-size="64.0" fill="#8881F0" transform="matrix(1.00, 0.00, -0.00, -1.00, 651.3, 281.8)">t</text></g></svg>