<?xml version="1.0" encoding="UTF-8" standalone="no"?><svg xmlns="http://www.w3.org/2000/svg" xmlns:xlink="http://www.w3.org/1999/xlink" clip-rule="evenodd" stroke-miterlimit="10" viewBox="0 0 1024 768"><desc>SVG generated by Keynote</desc><defs><pattern id="patternP1" patternUnits="userSpaceOnUse" width="600" height="600" viewBox="0 0 600 600"><image xlink:href="8571D34485008A2B4E76C6C919FEC199.png" width="600.00" height="600.00"></image></pattern></defs><g transform="matrix(1.00, 0.00, -0.00, -1.00, 0.0, 768.0)"><path d="M 0.0 768.0 L 1024.0 768.0 L 1024.0 0.0 L 0.0 0.0 Z M 0.0 768.0 " fill="#52575F"></path><image xlink:href="705CB6FE540DAF5E639149E583C30688.png" width="433.00" height="559.00" transform="matrix(1.00, 0.00, -0.00, -1.00, 317.2, 627.6)" opacity="0.50"></image><g><clipPath id="clip0x6000018bf7a0"><path d="M 320.0 627.0 L 747.0 627.0 L 747.0 73.0 L 320.0 73.0 Z M 320.2 626.6 "></path></clipPath><g clip-path="url(#clip0x6000018bf7a0)"><path d="M 320.0 73.0 L 747.0 73.0 L 747.0 627.0 L 320.0 627.0 Z M 320.0 73.0 " fill="url(#patternP1)"></path></g></g><g><clipPath id="clip0x6080016a8c40"><path d="M 315.4 73.2 L 751.5 73.2 L 751.5 628.6 L 315.4 628.6 Z M 315.4 73.2 "></path></clipPath><g clip-path="url(#clip0x6080016a8c40)"><text xml:space="preserve" font-family="Helvetica-Light,Helvetica" font-size="35.0" fill="#FEFFFF" transform="matrix(1.00, 0.00, -0.00, -1.00, 471.5, 559.7)">A</text><text xml:space="preserve" font-family="Helvetica-Light,Helvetica" font-size="35.0" fill="#FEFFFF" transform="matrix(1.00, 0.00, -0.00, -1.00, 494.9, 559.7)">n</text><text xml:space="preserve" font-family="Helvetica-Light,Helvetica" font-size="35.0" fill="#FEFFFF" transform="matrix(1.00, 0.00, -0.00, -1.00, 514.3, 559.7)">d</text><text xml:space="preserve" font-family="Helvetica-Light,Helvetica" font-size="35.0" fill="#FEFFFF" transform="matrix(1.00, 0.00, -0.00, -1.00, 535.7, 559.7)">r</text><text xml:space="preserve" font-family="Helvetica-Light,Helvetica" font-size="35.0" fill="#FEFFFF" transform="matrix(1.00, 0.00, -0.00, -1.00, 546.7, 559.7)">o</text><text xml:space="preserve" font-family="Helvetica-Light,Helvetica" font-size="35.0" fill="#FEFFFF" transform="matrix(1.00, 0.00, -0.00, -1.00, 566.2, 559.7)">i</text><text xml:space="preserve" font-family="Helvetica-Light,Helvetica" font-size="35.0" fill="#FEFFFF" transform="matrix(1.00, 0.00, -0.00, -1.00, 574.0, 559.7)">d</text></g></g><image xlink:href="09B4A38A7F5CBF56C830E4D57E56D3CC.png" width="398.00" height="79.00" transform="matrix(1.00, 0.00, -0.00, -1.01, 334.5, 165.4)" opacity="0.50"></image><path d="M 338.0 164.0 L 729.0 164.0 L 729.0 91.0 L 338.0 91.0 Z M 337.5 164.4 " fill="#EB5C56"></path><g><clipPath id="clip0x6000018bfb60"><path d="M 329.5 86.4 L 737.3 86.4 L 737.3 168.4 L 329.5 168.4 Z M 329.5 86.4 "></path></clipPath><g clip-path="url(#clip0x6000018bfb60)"><text xml:space="preserve" font-family="Helvetica-Light,Helvetica" font-size="48.0" fill="#FEFFFF" transform="matrix(1.00, 0.00, -0.00, -1.00, 438.7, 109.4)">B</text><text xml:space="preserve" font-family="Helvetica-Light,Helvetica" font-size="48.0" fill="#FEFFFF" transform="matrix(1.00, 0.00, -0.00, -1.00, 470.8, 109.4)">a</text><text xml:space="preserve" font-family="Helvetica-Light,Helvetica" font-size="48.0" fill="#FEFFFF" transform="matrix(1.00, 0.00, -0.00, -1.00, 497.4, 109.4)">s</text><text xml:space="preserve" font-family="Helvetica-Light,Helvetica" font-size="48.0" fill="#FEFFFF" transform="matrix(1.00, 0.00, -0.00, -1.00, 521.4, 109.4)">e</text><text xml:space="preserve" font-family="Helvetica-Light,Helvetica" font-size="48.0" fill="#FEFFFF" transform="matrix(1.00, 0.00, -0.00, -1.00, 548.1, 109.4)"> </text><text xml:space="preserve" font-family="Helvetica-Light,Helvetica" font-size="48.0" fill="#FEFFFF" transform="matrix(1.00, 0.00, -0.00, -1.00, 561.5, 109.4)">O</text><text xml:space="preserve" font-family="Helvetica-Light,Helvetica" font-size="48.0" fill="#FEFFFF" transform="matrix(1.00, 0.00, -0.00, -1.00, 598.8, 109.4)">S</text></g></g><image xlink:href="800BC01544184DA735306086D75FF577.png" width="398.00" height="88.00" transform="matrix(1.00, 0.00, -0.00, -0.99, 334.5, 260.9)" opacity="0.50"></image><path d="M 338.0 260.0 L 729.0 260.0 L 729.0 178.0 L 338.0 178.0 Z M 337.5 259.9 " fill="#1497FC"></path><g><clipPath id="clip0x600001aa0180"><path d="M 329.5 177.9 L 737.3 177.9 L 737.3 259.9 L 329.5 259.9 Z M 329.5 177.9 "></path></clipPath><g clip-path="url(#clip0x600001aa0180)"><text xml:space="preserve" font-family="Helvetica-Light,Helvetica" font-size="48.0" fill="#FEFFFF" transform="matrix(1.00, 0.00, -0.00, -1.00, 441.4, 201.0)">J</text><text xml:space="preserve" font-family="Helvetica-Light,Helvetica" font-size="48.0" fill="#FEFFFF" transform="matrix(1.00, 0.00, -0.00, -1.00, 465.4, 201.0)">a</text><text xml:space="preserve" font-family="Helvetica-Light,Helvetica" font-size="48.0" fill="#FEFFFF" transform="matrix(1.00, 0.00, -0.00, -1.00, 492.1, 201.0)">v</text><text xml:space="preserve" font-family="Helvetica-Light,Helvetica" font-size="48.0" fill="#FEFFFF" transform="matrix(1.00, 0.00, -0.00, -1.00, 516.1, 201.0)">a</text><text xml:space="preserve" font-family="Helvetica-Light,Helvetica" font-size="48.0" fill="#FEFFFF" transform="matrix(1.00, 0.00, -0.00, -1.00, 542.8, 201.0)"> </text><text xml:space="preserve" font-family="Helvetica-Light,Helvetica" font-size="48.0" fill="#FEFFFF" transform="matrix(1.00, 0.00, -0.00, -1.00, 556.1, 201.0)">V</text><text xml:space="preserve" font-family="Helvetica-Light,Helvetica" font-size="48.0" fill="#FEFFFF" transform="matrix(1.00, 0.00, -0.00, -1.00, 585.5, 201.0)">M</text></g></g><image xlink:href="ADEEAF8C3199F552F4ABBEECF7944AC1.png" width="401.00" height="79.00" transform="matrix(1.00, 0.00, -0.00, -1.01, 333.0, 523.5)" opacity="0.50"></image><path d="M 336.0 522.0 L 731.0 522.0 L 731.0 449.0 L 336.0 449.0 Z M 336.0 522.5 " fill="#6FBF40"></path><g><clipPath id="clip0x600001aa0780"><path d="M 328.0 444.5 L 738.9 444.5 L 738.9 526.5 L 328.0 526.5 Z M 328.0 444.5 "></path></clipPath><g clip-path="url(#clip0x600001aa0780)"><text xml:space="preserve" font-family="Helvetica-Light,Helvetica" font-size="48.0" fill="#FEFFFF" transform="matrix(1.00, 0.00, -0.00, -1.00, 488.1, 467.5)">A</text><text xml:space="preserve" font-family="Helvetica-Light,Helvetica" font-size="48.0" fill="#FEFFFF" transform="matrix(1.00, 0.00, -0.00, -1.00, 520.1, 467.5)">p</text><text xml:space="preserve" font-family="Helvetica-Light,Helvetica" font-size="48.0" fill="#FEFFFF" transform="matrix(1.00, 0.00, -0.00, -1.00, 549.4, 467.5)">p</text></g></g><image xlink:href="8578B9BDAFDD75C680E8CE7DA76A3A50.png" width="401.00" height="79.00" transform="matrix(1.00, 0.00, -0.00, -1.01, 333.0, 436.0)" opacity="0.50"></image><path d="M 336.0 435.0 L 731.0 435.0 L 731.0 362.0 L 336.0 362.0 Z M 336.0 435.0 " fill="#E7A432"></path><g><clipPath id="clip0x600001aa0c00"><path d="M 328.0 357.0 L 738.9 357.0 L 738.9 439.0 L 328.0 439.0 Z M 328.0 357.0 "></path></clipPath><g clip-path="url(#clip0x600001aa0c00)"><text xml:space="preserve" font-family="Helvetica-Light,Helvetica" font-size="48.0" fill="#FEFFFF" transform="matrix(1.00, 0.00, -0.00, -1.00, 445.9, 380.0)">B</text><text xml:space="preserve" font-family="Helvetica-Light,Helvetica" font-size="48.0" fill="#FEFFFF" transform="matrix(1.00, 0.00, -0.00, -1.00, 477.9, 380.0)">r</text><text xml:space="preserve" font-family="Helvetica-Light,Helvetica" font-size="48.0" fill="#FEFFFF" transform="matrix(1.00, 0.00, -0.00, -1.00, 493.0, 380.0)">o</text><text xml:space="preserve" font-family="Helvetica-Light,Helvetica" font-size="48.0" fill="#FEFFFF" transform="matrix(1.00, 0.00, -0.00, -1.00, 519.7, 380.0)">w</text><text xml:space="preserve" font-family="Helvetica-Light,Helvetica" font-size="48.0" fill="#FEFFFF" transform="matrix(1.00, 0.00, -0.00, -1.00, 554.3, 380.0)">s</text><text xml:space="preserve" font-family="Helvetica-Light,Helvetica" font-size="48.0" fill="#FEFFFF" transform="matrix(1.00, 0.00, -0.00, -1.00, 578.3, 380.0)">e</text><text xml:space="preserve" font-family="Helvetica-Light,Helvetica" font-size="48.0" fill="#FEFFFF" transform="matrix(1.00, 0.00, -0.00, -1.00, 605.0, 380.0)">r</text></g></g><image xlink:href="2D2E3ECE26CC2F5D4CB5172DE802257A.png" width="401.00" height="79.00" transform="matrix(1.00, 0.00, -0.00, -1.01, 333.0, 348.5)" opacity="0.50"></image><path d="M 336.0 347.0 L 731.0 347.0 L 731.0 274.0 L 336.0 274.0 Z M 336.0 347.5 " fill="#2F8B16"></path><g><clipPath id="clip0x600001aa1200"><path d="M 328.0 269.5 L 738.9 269.5 L 738.9 351.5 L 328.0 351.5 Z M 328.0 269.5 "></path></clipPath><g clip-path="url(#clip0x600001aa1200)"><text xml:space="preserve" font-family="Helvetica-Light,Helvetica" font-size="48.0" fill="#FEFFFF" transform="matrix(1.00, 0.00, -0.00, -1.00, 414.8, 292.5)">F</text><text xml:space="preserve" font-family="Helvetica-Light,Helvetica" font-size="48.0" fill="#FEFFFF" transform="matrix(1.00, 0.00, -0.00, -1.00, 441.4, 292.5)">r</text><text xml:space="preserve" font-family="Helvetica-Light,Helvetica" font-size="48.0" fill="#FEFFFF" transform="matrix(1.00, 0.00, -0.00, -1.00, 457.4, 292.5)">a</text><text xml:space="preserve" font-family="Helvetica-Light,Helvetica" font-size="48.0" fill="#FEFFFF" transform="matrix(1.00, 0.00, -0.00, -1.00, 484.1, 292.5)">m</text><text xml:space="preserve" font-family="Helvetica-Light,Helvetica" font-size="48.0" fill="#FEFFFF" transform="matrix(1.00, 0.00, -0.00, -1.00, 524.1, 292.5)">e</text><text xml:space="preserve" font-family="Helvetica-Light,Helvetica" font-size="48.0" fill="#FEFFFF" transform="matrix(1.00, 0.00, -0.00, -1.00, 550.8, 292.5)">w</text><text xml:space="preserve" font-family="Helvetica-Light,Helvetica" font-size="48.0" fill="#FEFFFF" transform="matrix(1.00, 0.00, -0.00, -1.00, 585.4, 292.5)">o</text><text xml:space="preserve" font-family="Helvetica-Light,Helvetica" font-size="48.0" fill="#FEFFFF" transform="matrix(1.00, 0.00, -0.00, -1.00, 612.1, 292.5)">r</text><text xml:space="preserve" font-family="Helvetica-Light,Helvetica" font-size="48.0" fill="#FEFFFF" transform="matrix(1.00, 0.00, -0.00, -1.00, 628.1, 292.5)">k</text></g></g></g></svg>