<?xml version="1.0" encoding="UTF-8" standalone="no"?><svg xmlns="http://www.w3.org/2000/svg" xmlns:xlink="http://www.w3.org/1999/xlink" clip-rule="evenodd" stroke-miterlimit="10" viewBox="0 0 435 566"><desc>SVG generated by Keynote</desc><defs><pattern id="patternP1" patternUnits="userSpaceOnUse" width="600" height="600" viewBox="0 0 600 600"><image xlink:href="../../D47B8E95-FA02-416E-BE4D-A07E9C78AB5A/assets/8571D34485008A2B4E76C6C919FEC199.png" width="600.00" height="600.00"></image></pattern></defs><g transform="matrix(1.00, 0.00, -0.00, -1.00, 0.0, 566.0)"><image xlink:href="../../D47B8E95-FA02-416E-BE4D-A07E9C78AB5A/assets/705CB6FE540DAF5E639149E583C30688.png" width="433.00" height="559.00" transform="matrix(1.00, 0.00, -0.00, -1.00, 1.2, 560.6)" opacity="0.50"></image><g><clipPath id="clip0x600001aa9d80"><path d="M 4.0 560.0 L 431.0 560.0 L 431.0 6.0 L 4.0 6.0 Z M 4.2 559.6 "></path></clipPath><g clip-path="url(#clip0x600001aa9d80)"><path d="M 4.0 6.0 L 431.0 6.0 L 431.0 560.0 L 4.0 560.0 Z M 4.0 6.0 " fill="url(#patternP1)"></path></g></g><g><clipPath id="clip0x600001aaa440"><path d="M -0.6 6.2 L 435.5 6.2 L 435.5 561.6 L -0.6 561.6 Z M -0.6 6.2 "></path></clipPath><g clip-path="url(#clip0x600001aaa440)"><text xml:space="preserve" font-family="Helvetica-Light,Helvetica" font-size="35.0" fill="#FEFFFF" transform="matrix(1.00, 0.00, -0.00, -1.00, 155.5, 492.7)">A</text><text xml:space="preserve" font-family="Helvetica-Light,Helvetica" font-size="35.0" fill="#FEFFFF" transform="matrix(1.00, 0.00, -0.00, -1.00, 178.9, 492.7)">n</text><text xml:space="preserve" font-family="Helvetica-Light,Helvetica" font-size="35.0" fill="#FEFFFF" transform="matrix(1.00, 0.00, -0.00, -1.00, 198.3, 492.7)">d</text><text xml:space="preserve" font-family="Helvetica-Light,Helvetica" font-size="35.0" fill="#FEFFFF" transform="matrix(1.00, 0.00, -0.00, -1.00, 219.7, 492.7)">r</text><text xml:space="preserve" font-family="Helvetica-Light,Helvetica" font-size="35.0" fill="#FEFFFF" transform="matrix(1.00, 0.00, -0.00, -1.00, 230.7, 492.7)">o</text><text xml:space="preserve" font-family="Helvetica-Light,Helvetica" font-size="35.0" fill="#FEFFFF" transform="matrix(1.00, 0.00, -0.00, -1.00, 250.2, 492.7)">i</text><text xml:space="preserve" font-family="Helvetica-Light,Helvetica" font-size="35.0" fill="#FEFFFF" transform="matrix(1.00, 0.00, -0.00, -1.00, 258.0, 492.7)">d</text></g></g></g></svg>