<?xml version="1.0" encoding="UTF-8" standalone="no"?><svg xmlns="http://www.w3.org/2000/svg" xmlns:xlink="http://www.w3.org/1999/xlink" clip-rule="evenodd" stroke-miterlimit="10" viewBox="0 0 401 94"><desc>SVG generated by Keynote</desc><defs></defs><g transform="matrix(1.00, 0.00, -0.00, -1.00, 0.0, 94.0)"><image xlink:href="../../D47B8E95-FA02-416E-BE4D-A07E9C78AB5A/assets/800BC01544184DA735306086D75FF577.png" width="398.00" height="88.00" transform="matrix(1.00, 0.00, -0.00, -0.99, 1.5, 88.9)" opacity="0.50"></image><path d="M 5.0 88.0 L 396.0 88.0 L 396.0 6.0 L 5.0 6.0 Z M 4.5 87.9 " fill="#1497FC"></path><g><clipPath id="clip0x600001aaaec0"><path d="M -3.5 5.9 L 404.3 5.9 L 404.3 87.9 L -3.5 87.9 Z M -3.5 5.9 "></path></clipPath><g clip-path="url(#clip0x600001aaaec0)"><text xml:space="preserve" font-family="Helvetica-Light,Helvetica" font-size="48.0" fill="#FEFFFF" transform="matrix(1.00, 0.00, -0.00, -1.00, 108.4, 29.0)">J</text><text xml:space="preserve" font-family="Helvetica-Light,Helvetica" font-size="48.0" fill="#FEFFFF" transform="matrix(1.00, 0.00, -0.00, -1.00, 132.4, 29.0)">a</text><text xml:space="preserve" font-family="Helvetica-Light,Helvetica" font-size="48.0" fill="#FEFFFF" transform="matrix(1.00, 0.00, -0.00, -1.00, 159.1, 29.0)">v</text><text xml:space="preserve" font-family="Helvetica-Light,Helvetica" font-size="48.0" fill="#FEFFFF" transform="matrix(1.00, 0.00, -0.00, -1.00, 183.1, 29.0)">a</text><text xml:space="preserve" font-family="Helvetica-Light,Helvetica" font-size="48.0" fill="#FEFFFF" transform="matrix(1.00, 0.00, -0.00, -1.00, 209.8, 29.0)"> </text><text xml:space="preserve" font-family="Helvetica-Light,Helvetica" font-size="48.0" fill="#FEFFFF" transform="matrix(1.00, 0.00, -0.00, -1.00, 223.1, 29.0)">V</text><text xml:space="preserve" font-family="Helvetica-Light,Helvetica" font-size="48.0" fill="#FEFFFF" transform="matrix(1.00, 0.00, -0.00, -1.00, 252.5, 29.0)">M</text></g></g></g></svg>