<?xml version="1.0" encoding="UTF-8" standalone="no"?><svg xmlns="http://www.w3.org/2000/svg" xmlns:xlink="http://www.w3.org/1999/xlink" clip-rule="evenodd" stroke-miterlimit="10" viewBox="0 0 400 94"><desc>SVG generated by Keynote</desc><defs></defs><g transform="matrix(1.00, 0.00, -0.00, -1.00, 0.0, 94.0)"><image xlink:href="B9AD3A1FA40BF4617EB97805B1F12916.png" width="398.00" height="88.00" transform="matrix(1.00, 0.00, -0.00, -0.99, 1.0, 89.0)" opacity="0.50"></image><path d="M 4.0 88.0 L 396.0 88.0 L 396.0 6.0 L 4.0 6.0 Z M 4.0 88.0 " fill="#F38F18"></path><g><clipPath id="clip0x6080016ad980"><path d="M -4.0 6.0 L 403.8 6.0 L 403.8 88.0 L -4.0 88.0 Z M -4.0 6.0 "></path></clipPath><g clip-path="url(#clip0x6080016ad980)"><text xml:space="preserve" font-family="Helvetica-Light,Helvetica" font-size="48.0" fill="#FEFFFF" transform="matrix(1.00, 0.00, -0.00, -1.00, 112.3, 29.0)">B</text><text xml:space="preserve" font-family="Helvetica-Light,Helvetica" font-size="48.0" fill="#FEFFFF" transform="matrix(1.00, 0.00, -0.00, -1.00, 144.3, 29.0)">r</text><text xml:space="preserve" font-family="Helvetica-Light,Helvetica" font-size="48.0" fill="#FEFFFF" transform="matrix(1.00, 0.00, -0.00, -1.00, 159.5, 29.0)">o</text><text xml:space="preserve" font-family="Helvetica-Light,Helvetica" font-size="48.0" fill="#FEFFFF" transform="matrix(1.00, 0.00, -0.00, -1.00, 186.1, 29.0)">w</text><text xml:space="preserve" font-family="Helvetica-Light,Helvetica" font-size="48.0" fill="#FEFFFF" transform="matrix(1.00, 0.00, -0.00, -1.00, 220.8, 29.0)">s</text><text xml:space="preserve" font-family="Helvetica-Light,Helvetica" font-size="48.0" fill="#FEFFFF" transform="matrix(1.00, 0.00, -0.00, -1.00, 244.8, 29.0)">e</text><text xml:space="preserve" font-family="Helvetica-Light,Helvetica" font-size="48.0" fill="#FEFFFF" transform="matrix(1.00, 0.00, -0.00, -1.00, 271.5, 29.0)">r</text></g></g></g></svg>