<?xml version="1.0" encoding="UTF-8" standalone="no"?><svg xmlns="http://www.w3.org/2000/svg" xmlns:xlink="http://www.w3.org/1999/xlink" clip-rule="evenodd" stroke-miterlimit="10" viewBox="0 0 1024 768"><desc>SVG generated by Keynote</desc><defs><pattern id="patternP1" patternUnits="userSpaceOnUse" width="256" height="256" viewBox="0 0 256 256"><image xlink:href="../../A4ECFF92-CAEB-4811-8246-6D0FEDF04978/assets/DC4A24C730D80EFF20C27420F956E0DF.png" width="256.00" height="256.00"></image></pattern></defs><g transform="matrix(1.00, 0.00, -0.00, -1.00, 0.0, 768.0)"><path d="M 0.0 768.0 L 1024.0 768.0 L 1024.0 0.0 L 0.0 0.0 Z M 0.0 768.0 " fill="#52575F"></path><path d="M 107.0 678.0 L 935.0 678.0 L 935.0 90.0 L 107.0 90.0 Z M 107.0 678.0 " fill="#000000" fill-opacity="0.00"></path><g><clipPath id="clip0x6080012b8000"><path d="M 110.0 608.5 L 518.8 608.5 L 518.8 678.5 L 110.0 678.5 Z M 110.0 608.5 "></path></clipPath><g clip-path="url(#clip0x6080012b8000)"><text xml:space="preserve" font-family="Helvetica-Light,Helvetica" font-size="28.0" fill="#FEFFFF" transform="matrix(1.00, 0.00, -0.00, -1.00, 127.7, 650.0)">S</text><text xml:space="preserve" font-family="Helvetica-Light,Helvetica" font-size="28.0" fill="#FEFFFF" transform="matrix(1.00, 0.00, -0.00, -1.00, 144.8, 650.0)">m</text><text xml:space="preserve" font-family="Helvetica-Light,Helvetica" font-size="28.0" fill="#FEFFFF" transform="matrix(1.00, 0.00, -0.00, -1.00, 168.1, 650.0)">a</text><text xml:space="preserve" font-family="Helvetica-Light,Helvetica" font-size="28.0" fill="#FEFFFF" transform="matrix(1.00, 0.00, -0.00, -1.00, 183.7, 650.0)">r</text><text xml:space="preserve" font-family="Helvetica-Light,Helvetica" font-size="28.0" fill="#FEFFFF" transform="matrix(1.00, 0.00, -0.00, -1.00, 193.5, 650.0)">t</text><text xml:space="preserve" font-family="Helvetica-Light,Helvetica" font-size="28.0" fill="#FEFFFF" transform="matrix(1.00, 0.00, -0.00, -1.00, 201.3, 650.0)">p</text><text xml:space="preserve" font-family="Helvetica-Light,Helvetica" font-size="28.0" fill="#FEFFFF" transform="matrix(1.00, 0.00, -0.00, -1.00, 218.4, 650.0)">h</text><text xml:space="preserve" font-family="Helvetica-Light,Helvetica" font-size="28.0" fill="#FEFFFF" transform="matrix(1.00, 0.00, -0.00, -1.00, 234.0, 650.0)">o</text><text xml:space="preserve" font-family="Helvetica-Light,Helvetica" font-size="28.0" fill="#FEFFFF" transform="matrix(1.00, 0.00, -0.00, -1.00, 249.5, 650.0)">n</text><text xml:space="preserve" font-family="Helvetica-Light,Helvetica" font-size="28.0" fill="#FEFFFF" transform="matrix(1.00, 0.00, -0.00, -1.00, 265.1, 650.0)">e</text><text xml:space="preserve" font-family="Helvetica-Light,Helvetica" font-size="28.0" fill="#FEFFFF" transform="matrix(1.00, 0.00, -0.00, -1.00, 280.7, 650.0)"> </text><text xml:space="preserve" font-family="Helvetica-Light,Helvetica" font-size="28.0" fill="#FEFFFF" transform="matrix(1.00, 0.00, -0.00, -1.00, 288.5, 650.0)">O</text><text xml:space="preserve" font-family="Helvetica-Light,Helvetica" font-size="28.0" fill="#FEFFFF" transform="matrix(1.00, 0.00, -0.00, -1.00, 310.3, 650.0)">S</text><text xml:space="preserve" font-family="Helvetica-Light,Helvetica" font-size="28.0" fill="#FEFFFF" transform="matrix(1.00, 0.00, -0.00, -1.00, 327.4, 650.0)"> </text><text xml:space="preserve" font-family="Helvetica-Light,Helvetica" font-size="28.0" fill="#FEFFFF" transform="matrix(1.00, 0.00, -0.00, -1.00, 335.1, 650.0)">M</text><text xml:space="preserve" font-family="Helvetica-Light,Helvetica" font-size="28.0" fill="#FEFFFF" transform="matrix(1.00, 0.00, -0.00, -1.00, 358.5, 650.0)">a</text><text xml:space="preserve" font-family="Helvetica-Light,Helvetica" font-size="28.0" fill="#FEFFFF" transform="matrix(1.00, 0.00, -0.00, -1.00, 374.0, 650.0)">r</text><text xml:space="preserve" font-family="Helvetica-Light,Helvetica" font-size="28.0" fill="#FEFFFF" transform="matrix(1.00, 0.00, -0.00, -1.00, 383.4, 650.0)">k</text><text xml:space="preserve" font-family="Helvetica-Light,Helvetica" font-size="28.0" fill="#FEFFFF" transform="matrix(1.00, 0.00, -0.00, -1.00, 397.4, 650.0)">e</text><text xml:space="preserve" font-family="Helvetica-Light,Helvetica" font-size="28.0" fill="#FEFFFF" transform="matrix(1.00, 0.00, -0.00, -1.00, 412.9, 650.0)">t</text><text xml:space="preserve" font-family="Helvetica-Light,Helvetica" font-size="28.0" fill="#FEFFFF" transform="matrix(1.00, 0.00, -0.00, -1.00, 420.7, 650.0)"> </text><text xml:space="preserve" font-family="Helvetica-Light,Helvetica" font-size="28.0" fill="#FEFFFF" transform="matrix(1.00, 0.00, -0.00, -1.00, 428.5, 650.0)">S</text><text xml:space="preserve" font-family="Helvetica-Light,Helvetica" font-size="28.0" fill="#FEFFFF" transform="matrix(1.00, 0.00, -0.00, -1.00, 445.6, 650.0)">h</text><text xml:space="preserve" font-family="Helvetica-Light,Helvetica" font-size="28.0" fill="#FEFFFF" transform="matrix(1.00, 0.00, -0.00, -1.00, 461.2, 650.0)">a</text><text xml:space="preserve" font-family="Helvetica-Light,Helvetica" font-size="28.0" fill="#FEFFFF" transform="matrix(1.00, 0.00, -0.00, -1.00, 476.7, 650.0)">r</text><text xml:space="preserve" font-family="Helvetica-Light,Helvetica" font-size="28.0" fill="#FEFFFF" transform="matrix(1.00, 0.00, -0.00, -1.00, 485.6, 650.0)">e</text><text xml:space="preserve" font-family="Helvetica-Light,Helvetica" font-size="28.0" fill="#FEFFFF" transform="matrix(1.00, 0.00, -0.00, -1.00, 501.1, 650.0)"> </text><text xml:space="preserve" font-family="Helvetica-Light,Helvetica" font-size="28.0" fill="#FEFFFF" transform="matrix(1.00, 0.00, -0.00, -1.00, 185.2, 616.0)">a</text><text xml:space="preserve" font-family="Helvetica-Light,Helvetica" font-size="28.0" fill="#FEFFFF" transform="matrix(1.00, 0.00, -0.00, -1.00, 200.8, 616.0)">s</text><text xml:space="preserve" font-family="Helvetica-Light,Helvetica" font-size="28.0" fill="#FEFFFF" transform="matrix(1.00, 0.00, -0.00, -1.00, 214.8, 616.0)"> </text><text xml:space="preserve" font-family="Helvetica-Light,Helvetica" font-size="28.0" fill="#FEFFFF" transform="matrix(1.00, 0.00, -0.00, -1.00, 222.6, 616.0)">o</text><text xml:space="preserve" font-family="Helvetica-Light,Helvetica" font-size="28.0" fill="#FEFFFF" transform="matrix(1.00, 0.00, -0.00, -1.00, 238.2, 616.0)">f</text><text xml:space="preserve" font-family="Helvetica-Light,Helvetica" font-size="28.0" fill="#FEFFFF" transform="matrix(1.00, 0.00, -0.00, -1.00, 245.9, 616.0)"> </text><text xml:space="preserve" font-family="Helvetica-Light,Helvetica" font-size="28.0" fill="#FEFFFF" transform="matrix(1.00, 0.00, -0.00, -1.00, 253.7, 616.0)">Q</text><text xml:space="preserve" font-family="Helvetica-Light,Helvetica" font-size="28.0" fill="#FEFFFF" transform="matrix(1.00, 0.00, -0.00, -1.00, 275.5, 616.0)">3</text><text xml:space="preserve" font-family="Helvetica-Light,Helvetica" font-size="28.0" fill="#FEFFFF" transform="matrix(1.00, 0.00, -0.00, -1.00, 291.1, 616.0)">,</text><text xml:space="preserve" font-family="Helvetica-Light,Helvetica" font-size="28.0" fill="#FEFFFF" transform="matrix(1.00, 0.00, -0.00, -1.00, 298.9, 616.0)"> </text><text xml:space="preserve" font-family="Helvetica-Light,Helvetica" font-size="28.0" fill="#FEFFFF" transform="matrix(1.00, 0.00, -0.00, -1.00, 306.7, 616.0)">2</text><text xml:space="preserve" font-family="Helvetica-Light,Helvetica" font-size="28.0" fill="#FEFFFF" transform="matrix(1.00, 0.00, -0.00, -1.00, 322.2, 616.0)">0</text><text xml:space="preserve" font-family="Helvetica-Light,Helvetica" font-size="28.0" fill="#FEFFFF" transform="matrix(1.00, 0.00, -0.00, -1.00, 337.8, 616.0)">1</text><text xml:space="preserve" font-family="Helvetica-Light,Helvetica" font-size="28.0" fill="#FEFFFF" transform="matrix(1.00, 0.00, -0.00, -1.00, 353.4, 616.0)">4</text><text xml:space="preserve" font-family="Helvetica-Light,Helvetica" font-size="28.0" fill="#FEFFFF" transform="matrix(1.00, 0.00, -0.00, -1.00, 368.9, 616.0)"> </text><text xml:space="preserve" font-family="Helvetica-Light,Helvetica" font-size="28.0" fill="#FEFFFF" transform="matrix(1.00, 0.00, -0.00, -1.00, 376.7, 616.0)">(</text><text xml:space="preserve" font-family="Helvetica-Light,Helvetica" font-size="28.0" fill="#FEFFFF" transform="matrix(1.00, 0.00, -0.00, -1.00, 386.0, 616.0)">I</text><text xml:space="preserve" font-family="Helvetica-Light,Helvetica" font-size="28.0" fill="#FEFFFF" transform="matrix(1.00, 0.00, -0.00, -1.00, 393.8, 616.0)">D</text><text xml:space="preserve" font-family="Helvetica-Light,Helvetica" font-size="28.0" fill="#FEFFFF" transform="matrix(1.00, 0.00, -0.00, -1.00, 414.0, 616.0)">C</text><text xml:space="preserve" font-family="Helvetica-Light,Helvetica" font-size="28.0" fill="#FEFFFF" transform="matrix(1.00, 0.00, -0.00, -1.00, 434.2, 616.0)">)</text></g></g><g><image xlink:href="../../A4ECFF92-CAEB-4811-8246-6D0FEDF04978/assets/349D3081E64EFD1091D9F98D192B9981.png" width="16.00" height="211.00" transform="matrix(1.00, 0.00, -0.00, -1.00, 302.0, 583.0)"></image><g><clipPath id="clip0x6080012b8e40"><path d="M 0.0 0.0 L 1024.0 0.0 L 1024.0 768.0 L 0.0 768.0 Z M 0.0 0.0 "></path></clipPath><g clip-path="url(#clip0x6080012b8e40)"><g><g><clipPath id="clip0x6080012b9200"><path d="M 314.0 378.0 L 314.0 581.0 C 311.5 581.0 308.9 581.0 306.4 580.9 Z M 314.0 378.0 "></path></clipPath><g clip-path="url(#clip0x6080012b9200)"><g><clipPath id="clip0x6080012b9380"><path d="M -4.0 -6.0 L 1028.0 -6.0 L 1028.0 774.0 L -4.0 774.0 Z M -4.0 -6.0 "></path></clipPath><g clip-path="url(#clip0x6080012b9380)"><image xlink:href="../../A4ECFF92-CAEB-4811-8246-6D0FEDF04978/assets/1566135D4134BA27340C29CB2EB06A1E.png" width="256.00" height="256.00" transform="matrix(1.00, 0.00, -0.00, -1.00, 306.4, 581.0)"></image></g></g></g></g></g></g></g><image xlink:href="../../A4ECFF92-CAEB-4811-8246-6D0FEDF04978/assets/64921B9FECF0DAD22B4992432486CC40.png" width="23.00" height="211.00" transform="matrix(1.00, 0.00, -0.00, -1.00, 295.0, 583.0)"></image><g><clipPath id="clip0x6000016b37a0"><path d="M 0.0 0.0 L 1024.0 0.0 L 1024.0 768.0 L 0.0 768.0 Z M 0.0 0.0 "></path></clipPath><g clip-path="url(#clip0x6000016b37a0)"><g><g><clipPath id="clip0x6000016b32c0"><path d="M 314.0 378.0 L 306.4 580.9 C 304.2 580.8 302.1 580.7 300.0 580.5 Z M 314.0 378.0 "></path></clipPath><g clip-path="url(#clip0x6000016b32c0)"><g><clipPath id="clip0x6000016b39e0"><path d="M -4.0 -6.0 L 1028.0 -6.0 L 1028.0 774.0 L -4.0 774.0 Z M -4.0 -6.0 "></path></clipPath><g clip-path="url(#clip0x6000016b39e0)"><image xlink:href="../../A4ECFF92-CAEB-4811-8246-6D0FEDF04978/assets/486E6008DDD490A0E508DF1B6E78F4CD.png" width="256.00" height="256.00" transform="matrix(1.00, 0.00, -0.00, -1.00, 300.0, 580.9)"></image></g></g></g></g></g></g></g><image xlink:href="../../A4ECFF92-CAEB-4811-8246-6D0FEDF04978/assets/B6BA8FCB7A09685879C6E5A8B5EF0D50.png" width="59.00" height="211.00" transform="matrix(1.00, 0.00, -0.00, -1.00, 259.0, 583.0)"></image><g><clipPath id="clip0x6080012b93e0"><path d="M 0.0 0.0 L 1024.0 0.0 L 1024.0 768.0 L 0.0 768.0 Z M 0.0 0.0 "></path></clipPath><g clip-path="url(#clip0x6080012b93e0)"><g><g><clipPath id="clip0x6080012b97a0"><path d="M 314.0 378.0 L 300.0 580.5 C 287.7 579.7 275.5 577.7 263.6 574.6 Z M 314.0 378.0 "></path></clipPath><g clip-path="url(#clip0x6080012b97a0)"><g><clipPath id="clip0x6080012b9920"><path d="M -4.0 -6.0 L 1028.0 -6.0 L 1028.0 774.0 L -4.0 774.0 Z M -4.0 -6.0 "></path></clipPath><g clip-path="url(#clip0x6080012b9920)"><image xlink:href="../../A4ECFF92-CAEB-4811-8246-6D0FEDF04978/assets/58D2F3711743B5B369E2FCA058C17345.png" width="256.00" height="256.00" transform="matrix(1.00, 0.00, -0.00, -1.00, 263.6, 580.5)"></image></g></g></g></g></g></g></g><image xlink:href="../../A4ECFF92-CAEB-4811-8246-6D0FEDF04978/assets/8D0D36CD2356E46A3FD021BE650AD6D9.png" width="178.00" height="205.00" transform="matrix(1.00, 0.00, -0.00, -1.00, 140.0, 577.0)"></image><g><clipPath id="clip0x6080012b9980"><path d="M 0.0 0.0 L 1024.0 0.0 L 1024.0 768.0 L 0.0 768.0 Z M 0.0 0.0 "></path></clipPath><g clip-path="url(#clip0x6080012b9980)"><g><g><clipPath id="clip0x6080012b9d40"><path d="M 314.0 378.0 L 263.6 574.6 C 214.9 562.1 172.6 532.0 144.8 490.2 Z M 314.0 378.0 "></path></clipPath><g clip-path="url(#clip0x6080012b9d40)"><g><clipPath id="clip0x6080012b9ec0"><path d="M -4.0 -6.0 L 1028.0 -6.0 L 1028.0 774.0 L -4.0 774.0 Z M -4.0 -6.0 "></path></clipPath><g clip-path="url(#clip0x6080012b9ec0)"><image xlink:href="../../A4ECFF92-CAEB-4811-8246-6D0FEDF04978/assets/89F145493086C2BDCF10CCA9AA687C40.png" width="256.00" height="256.00" transform="matrix(1.00, 0.00, -0.00, -1.00, 144.8, 574.6)"></image></g></g></g></g></g></g></g><image xlink:href="../../A4ECFF92-CAEB-4811-8246-6D0FEDF04978/assets/B4195D928EB109AECA3A7DBE667D40D1.png" width="472.00" height="443.00" transform="matrix(1.00, 0.00, -0.00, -1.00, 78.0, 583.0)"></image><g><clipPath id="clip0x6080012b9f80"><path d="M 0.0 0.0 L 1024.0 0.0 L 1024.0 768.0 L 0.0 768.0 Z M 0.0 0.0 "></path></clipPath><g clip-path="url(#clip0x6080012b9f80)"><g><g><clipPath id="clip0x6080012ba2e0"><path d="M 314.0 378.0 L 144.8 490.2 C 82.9 396.7 108.4 270.7 201.8 208.8 C 295.3 146.9 421.3 172.4 483.2 265.8 C 545.1 359.3 519.6 485.3 426.2 547.2 C 392.9 569.2 353.9 581.0 314.0 581.0 Z M 314.0 378.0 "></path></clipPath><g clip-path="url(#clip0x6080012ba2e0)"><g><clipPath id="clip0x6080012ba460"><path d="M -4.0 -6.0 L 1028.0 -6.0 L 1028.0 774.0 L -4.0 774.0 Z M -4.0 -6.0 "></path></clipPath><g clip-path="url(#clip0x6080012ba460)"><path d="M 82.9 146.9 L 545.1 146.9 L 545.1 581.0 L 82.9 581.0 Z M 82.9 146.9 " fill="url(#patternP1)"></path></g></g></g></g></g></g></g></g><g><clipPath id="clip0x6000016b3e60"><path d="M 554.0 163.0 C 554.0 158.0 549.7 154.0 544.5 154.0 C 539.3 154.0 535.0 158.0 535.0 163.0 C 535.0 168.0 539.3 172.0 544.5 172.0 C 549.7 172.0 554.0 168.0 554.0 163.0 Z M 554.0 163.0 "></path></clipPath><g clip-path="url(#clip0x6000016b3e60)"><g><clipPath id="clip0x6000016b3fe0"><path d="M 554.0 163.0 C 554.0 158.0 549.7 154.0 544.5 154.0 C 539.3 154.0 535.0 158.0 535.0 163.0 C 535.0 168.0 539.3 172.0 544.5 172.0 C 549.7 172.0 554.0 168.0 554.0 163.0 Z M 554.0 163.0 "></path></clipPath><g clip-path="url(#clip0x6000016b3fe0)"><image xlink:href="../../A4ECFF92-CAEB-4811-8246-6D0FEDF04978/assets/DC4A24C730D80EFF20C27420F956E0DF.png" width="256.00" height="256.00" transform="matrix(1.00, 0.00, -0.00, -1.00, 535.0, 172.0)"></image></g></g></g></g><text xml:space="preserve" font-family="Helvetica-Light,Helvetica" font-size="24.0" fill="#FEFFFF" transform="matrix(1.00, 0.00, -0.00, -1.00, 567.6, 154.0)">A</text><text xml:space="preserve" font-family="Helvetica-Light,Helvetica" font-size="24.0" fill="#FEFFFF" transform="matrix(1.00, 0.00, -0.00, -1.00, 583.6, 154.0)">n</text><text xml:space="preserve" font-family="Helvetica-Light,Helvetica" font-size="24.0" fill="#FEFFFF" transform="matrix(1.00, 0.00, -0.00, -1.00, 596.9, 154.0)">d</text><text xml:space="preserve" font-family="Helvetica-Light,Helvetica" font-size="24.0" fill="#FEFFFF" transform="matrix(1.00, 0.00, -0.00, -1.00, 611.6, 154.0)">r</text><text xml:space="preserve" font-family="Helvetica-Light,Helvetica" font-size="24.0" fill="#FEFFFF" transform="matrix(1.00, 0.00, -0.00, -1.00, 619.2, 154.0)">o</text><text xml:space="preserve" font-family="Helvetica-Light,Helvetica" font-size="24.0" fill="#FEFFFF" transform="matrix(1.00, 0.00, -0.00, -1.00, 632.5, 154.0)">i</text><text xml:space="preserve" font-family="Helvetica-Light,Helvetica" font-size="24.0" fill="#FEFFFF" transform="matrix(1.00, 0.00, -0.00, -1.00, 637.8, 154.0)">d</text><g><clipPath id="clip0x6000016b4520"><path d="M 781.0 163.0 C 781.0 158.0 776.7 154.0 771.5 154.0 C 766.3 154.0 762.0 158.0 762.0 163.0 C 762.0 168.0 766.3 172.0 771.5 172.0 C 776.7 172.0 781.0 168.0 781.0 163.0 Z M 781.0 163.0 "></path></clipPath><g clip-path="url(#clip0x6000016b4520)"><g><clipPath id="clip0x6000016b46a0"><path d="M 781.0 163.0 C 781.0 158.0 776.7 154.0 771.5 154.0 C 766.3 154.0 762.0 158.0 762.0 163.0 C 762.0 168.0 766.3 172.0 771.5 172.0 C 776.7 172.0 781.0 168.0 781.0 163.0 Z M 781.0 163.0 "></path></clipPath><g clip-path="url(#clip0x6000016b46a0)"><image xlink:href="../../A4ECFF92-CAEB-4811-8246-6D0FEDF04978/assets/89F145493086C2BDCF10CCA9AA687C40.png" width="256.00" height="256.00" transform="matrix(1.00, 0.00, -0.00, -1.00, 762.0, 172.0)"></image></g></g></g></g><text xml:space="preserve" font-family="Helvetica-Light,Helvetica" font-size="24.0" fill="#FEFFFF" transform="matrix(1.00, 0.00, -0.00, -1.00, 794.7, 154.0)">i</text><text xml:space="preserve" font-family="Helvetica-Light,Helvetica" font-size="24.0" fill="#FEFFFF" transform="matrix(1.00, 0.00, -0.00, -1.00, 800.1, 154.0)">O</text><text xml:space="preserve" font-family="Helvetica-Light,Helvetica" font-size="24.0" fill="#FEFFFF" transform="matrix(1.00, 0.00, -0.00, -1.00, 818.7, 154.0)">S</text><g><clipPath id="clip0x6000016b4a60"><path d="M 554.0 134.0 C 554.0 129.0 549.7 125.0 544.5 125.0 C 539.3 125.0 535.0 129.0 535.0 134.0 C 535.0 139.0 539.3 143.0 544.5 143.0 C 549.7 143.0 554.0 139.0 554.0 134.0 Z M 554.0 134.0 "></path></clipPath><g clip-path="url(#clip0x6000016b4a60)"><g><clipPath id="clip0x6000016b4be0"><path d="M 554.0 134.0 C 554.0 129.0 549.7 125.0 544.5 125.0 C 539.3 125.0 535.0 129.0 535.0 134.0 C 535.0 139.0 539.3 143.0 544.5 143.0 C 549.7 143.0 554.0 139.0 554.0 134.0 Z M 554.0 134.0 "></path></clipPath><g clip-path="url(#clip0x6000016b4be0)"><image xlink:href="../../A4ECFF92-CAEB-4811-8246-6D0FEDF04978/assets/58D2F3711743B5B369E2FCA058C17345.png" width="256.00" height="256.00" transform="matrix(1.00, 0.00, -0.00, -1.00, 535.0, 143.0)"></image></g></g></g></g><text xml:space="preserve" font-family="Helvetica-Light,Helvetica" font-size="24.0" fill="#FEFFFF" transform="matrix(1.00, 0.00, -0.00, -1.00, 567.6, 125.0)">W</text><text xml:space="preserve" font-family="Helvetica-Light,Helvetica" font-size="24.0" fill="#FEFFFF" transform="matrix(1.00, 0.00, -0.00, -1.00, 588.9, 125.0)">i</text><text xml:space="preserve" font-family="Helvetica-Light,Helvetica" font-size="24.0" fill="#FEFFFF" transform="matrix(1.00, 0.00, -0.00, -1.00, 594.3, 125.0)">n</text><text xml:space="preserve" font-family="Helvetica-Light,Helvetica" font-size="24.0" fill="#FEFFFF" transform="matrix(1.00, 0.00, -0.00, -1.00, 607.6, 125.0)">d</text><text xml:space="preserve" font-family="Helvetica-Light,Helvetica" font-size="24.0" fill="#FEFFFF" transform="matrix(1.00, 0.00, -0.00, -1.00, 622.3, 125.0)">o</text><text xml:space="preserve" font-family="Helvetica-Light,Helvetica" font-size="24.0" fill="#FEFFFF" transform="matrix(1.00, 0.00, -0.00, -1.00, 635.6, 125.0)">w</text><text xml:space="preserve" font-family="Helvetica-Light,Helvetica" font-size="24.0" fill="#FEFFFF" transform="matrix(1.00, 0.00, -0.00, -1.00, 652.9, 125.0)">s</text><text xml:space="preserve" font-family="Helvetica-Light,Helvetica" font-size="24.0" fill="#FEFFFF" transform="matrix(1.00, 0.00, -0.00, -1.00, 664.9, 125.0)"> </text><text xml:space="preserve" font-family="Helvetica-Light,Helvetica" font-size="24.0" fill="#FEFFFF" transform="matrix(1.00, 0.00, -0.00, -1.00, 671.6, 125.0)">P</text><text xml:space="preserve" font-family="Helvetica-Light,Helvetica" font-size="24.0" fill="#FEFFFF" transform="matrix(1.00, 0.00, -0.00, -1.00, 686.3, 125.0)">h</text><text xml:space="preserve" font-family="Helvetica-Light,Helvetica" font-size="24.0" fill="#FEFFFF" transform="matrix(1.00, 0.00, -0.00, -1.00, 699.6, 125.0)">o</text><text xml:space="preserve" font-family="Helvetica-Light,Helvetica" font-size="24.0" fill="#FEFFFF" transform="matrix(1.00, 0.00, -0.00, -1.00, 713.0, 125.0)">n</text><text xml:space="preserve" font-family="Helvetica-Light,Helvetica" font-size="24.0" fill="#FEFFFF" transform="matrix(1.00, 0.00, -0.00, -1.00, 726.3, 125.0)">e</text><g><clipPath id="clip0x6000016b5360"><path d="M 781.0 134.0 C 781.0 129.0 776.7 125.0 771.5 125.0 C 766.3 125.0 762.0 129.0 762.0 134.0 C 762.0 139.0 766.3 143.0 771.5 143.0 C 776.7 143.0 781.0 139.0 781.0 134.0 Z M 781.0 134.0 "></path></clipPath><g clip-path="url(#clip0x6000016b5360)"><g><clipPath id="clip0x6000016b54e0"><path d="M 781.0 134.0 C 781.0 129.0 776.7 125.0 771.5 125.0 C 766.3 125.0 762.0 129.0 762.0 134.0 C 762.0 139.0 766.3 143.0 771.5 143.0 C 776.7 143.0 781.0 139.0 781.0 134.0 Z M 781.0 134.0 "></path></clipPath><g clip-path="url(#clip0x6000016b54e0)"><image xlink:href="../../A4ECFF92-CAEB-4811-8246-6D0FEDF04978/assets/486E6008DDD490A0E508DF1B6E78F4CD.png" width="256.00" height="256.00" transform="matrix(1.00, 0.00, -0.00, -1.00, 762.0, 143.0)"></image></g></g></g></g><text xml:space="preserve" font-family="Helvetica-Light,Helvetica" font-size="24.0" fill="#FEFFFF" transform="matrix(1.00, 0.00, -0.00, -1.00, 794.7, 125.0)">B</text><text xml:space="preserve" font-family="Helvetica-Light,Helvetica" font-size="24.0" fill="#FEFFFF" transform="matrix(1.00, 0.00, -0.00, -1.00, 810.7, 125.0)">l</text><text xml:space="preserve" font-family="Helvetica-Light,Helvetica" font-size="24.0" fill="#FEFFFF" transform="matrix(1.00, 0.00, -0.00, -1.00, 816.1, 125.0)">a</text><text xml:space="preserve" font-family="Helvetica-Light,Helvetica" font-size="24.0" fill="#FEFFFF" transform="matrix(1.00, 0.00, -0.00, -1.00, 829.4, 125.0)">c</text><text xml:space="preserve" font-family="Helvetica-Light,Helvetica" font-size="24.0" fill="#FEFFFF" transform="matrix(1.00, 0.00, -0.00, -1.00, 842.8, 125.0)">k</text><text xml:space="preserve" font-family="Helvetica-Light,Helvetica" font-size="24.0" fill="#FEFFFF" transform="matrix(1.00, 0.00, -0.00, -1.00, 854.8, 125.0)">B</text><text xml:space="preserve" font-family="Helvetica-Light,Helvetica" font-size="24.0" fill="#FEFFFF" transform="matrix(1.00, 0.00, -0.00, -1.00, 870.8, 125.0)">e</text><text xml:space="preserve" font-family="Helvetica-Light,Helvetica" font-size="24.0" fill="#FEFFFF" transform="matrix(1.00, 0.00, -0.00, -1.00, 884.1, 125.0)">r</text><text xml:space="preserve" font-family="Helvetica-Light,Helvetica" font-size="24.0" fill="#FEFFFF" transform="matrix(1.00, 0.00, -0.00, -1.00, 892.1, 125.0)">r</text><text xml:space="preserve" font-family="Helvetica-Light,Helvetica" font-size="24.0" fill="#FEFFFF" transform="matrix(1.00, 0.00, -0.00, -1.00, 900.5, 125.0)">y</text><g><clipPath id="clip0x6080012bab20"><path d="M 554.0 105.0 C 554.0 100.0 549.7 96.0 544.5 96.0 C 539.3 96.0 535.0 100.0 535.0 105.0 C 535.0 110.0 539.3 114.0 544.5 114.0 C 549.7 114.0 554.0 110.0 554.0 105.0 Z M 554.0 105.0 "></path></clipPath><g clip-path="url(#clip0x6080012bab20)"><g><clipPath id="clip0x6080012baca0"><path d="M 554.0 105.0 C 554.0 100.0 549.7 96.0 544.5 96.0 C 539.3 96.0 535.0 100.0 535.0 105.0 C 535.0 110.0 539.3 114.0 544.5 114.0 C 549.7 114.0 554.0 110.0 554.0 105.0 Z M 554.0 105.0 "></path></clipPath><g clip-path="url(#clip0x6080012baca0)"><image xlink:href="../../A4ECFF92-CAEB-4811-8246-6D0FEDF04978/assets/1566135D4134BA27340C29CB2EB06A1E.png" width="256.00" height="256.00" transform="matrix(1.00, 0.00, -0.00, -1.00, 535.0, 114.0)"></image></g></g></g></g><text xml:space="preserve" font-family="Helvetica-Light,Helvetica" font-size="24.0" fill="#FEFFFF" transform="matrix(1.00, 0.00, -0.00, -1.00, 567.6, 96.0)">O</text><text xml:space="preserve" font-family="Helvetica-Light,Helvetica" font-size="24.0" fill="#FEFFFF" transform="matrix(1.00, 0.00, -0.00, -1.00, 586.3, 96.0)">t</text><text xml:space="preserve" font-family="Helvetica-Light,Helvetica" font-size="24.0" fill="#FEFFFF" transform="matrix(1.00, 0.00, -0.00, -1.00, 592.9, 96.0)">h</text><text xml:space="preserve" font-family="Helvetica-Light,Helvetica" font-size="24.0" fill="#FEFFFF" transform="matrix(1.00, 0.00, -0.00, -1.00, 606.3, 96.0)">e</text><text xml:space="preserve" font-family="Helvetica-Light,Helvetica" font-size="24.0" fill="#FEFFFF" transform="matrix(1.00, 0.00, -0.00, -1.00, 619.6, 96.0)">r</text><text xml:space="preserve" font-family="Helvetica-Light,Helvetica" font-size="24.0" fill="#FEFFFF" transform="matrix(1.00, 0.00, -0.00, -1.00, 627.6, 96.0)">s</text></g></svg>