<?xml version="1.0" encoding="UTF-8" standalone="no"?><svg xmlns="http://www.w3.org/2000/svg" xmlns:xlink="http://www.w3.org/1999/xlink" clip-rule="evenodd" stroke-miterlimit="10" viewBox="0 0 298 33"><desc>SVG generated by Keynote</desc><defs></defs><g transform="matrix(1.00, 0.00, -0.00, -1.00, 0.0, 33.0)"><text xml:space="preserve" font-family="Helvetica-Light,Helvetica" font-size="27.6" fill="#FEFFFF" transform="matrix(1.00, 0.00, -0.00, -1.00, 0.0, 8.1)">•</text><text xml:space="preserve" font-family="Helvetica-Light,Helvetica" font-size="36.9" fill="#FEFFFF" transform="matrix(1.00, 0.00, -0.00, -1.00, 34.0, 4.7)">G</text><text xml:space="preserve" font-family="Helvetica-Light,Helvetica" font-size="36.9" fill="#FEFFFF" transform="matrix(1.00, 0.00, -0.00, -1.00, 62.6, 4.7)">e</text><text xml:space="preserve" font-family="Helvetica-Light,Helvetica" font-size="36.9" fill="#FEFFFF" transform="matrix(1.00, 0.00, -0.00, -1.00, 83.1, 4.7)">o</text><text xml:space="preserve" font-family="Helvetica-Light,Helvetica" font-size="36.9" fill="#FEFFFF" transform="matrix(1.00, 0.00, -0.00, -1.00, 103.6, 4.7)">l</text><text xml:space="preserve" font-family="Helvetica-Light,Helvetica" font-size="36.9" fill="#FEFFFF" transform="matrix(1.00, 0.00, -0.00, -1.00, 111.8, 4.7)">o</text><text xml:space="preserve" font-family="Helvetica-Light,Helvetica" font-size="36.9" fill="#FEFFFF" transform="matrix(1.00, 0.00, -0.00, -1.00, 132.3, 4.7)">c</text><text xml:space="preserve" font-family="Helvetica-Light,Helvetica" font-size="36.9" fill="#FEFFFF" transform="matrix(1.00, 0.00, -0.00, -1.00, 152.8, 4.7)">a</text><text xml:space="preserve" font-family="Helvetica-Light,Helvetica" font-size="36.9" fill="#FEFFFF" transform="matrix(1.00, 0.00, -0.00, -1.00, 173.3, 4.7)">t</text><text xml:space="preserve" font-family="Helvetica-Light,Helvetica" font-size="36.9" fill="#FEFFFF" transform="matrix(1.00, 0.00, -0.00, -1.00, 183.5, 4.7)">i</text><text xml:space="preserve" font-family="Helvetica-Light,Helvetica" font-size="36.9" fill="#FEFFFF" transform="matrix(1.00, 0.00, -0.00, -1.00, 191.7, 4.7)">o</text><text xml:space="preserve" font-family="Helvetica-Light,Helvetica" font-size="36.9" fill="#FEFFFF" transform="matrix(1.00, 0.00, -0.00, -1.00, 212.2, 4.7)">n</text><text xml:space="preserve" font-family="Helvetica-Light,Helvetica" font-size="36.9" fill="#FEFFFF" transform="matrix(1.00, 0.00, -0.00, -1.00, 232.7, 4.7)"> </text><text xml:space="preserve" font-family="Helvetica-Light,Helvetica" font-size="36.9" fill="#FEFFFF" transform="matrix(1.00, 0.00, -0.00, -1.00, 242.9, 4.7)">A</text><text xml:space="preserve" font-family="Helvetica-Light,Helvetica" font-size="36.9" fill="#FEFFFF" transform="matrix(1.00, 0.00, -0.00, -1.00, 267.5, 4.7)">P</text><text xml:space="preserve" font-family="Helvetica-Light,Helvetica" font-size="36.9" fill="#FEFFFF" transform="matrix(1.00, 0.00, -0.00, -1.00, 290.1, 4.7)">I</text></g></svg>