<?xml version="1.0" encoding="UTF-8" standalone="no"?><svg xmlns="http://www.w3.org/2000/svg" xmlns:xlink="http://www.w3.org/1999/xlink" clip-rule="evenodd" stroke-miterlimit="10" viewBox="0 0 404 33"><desc>SVG generated by Keynote</desc><defs></defs><g transform="matrix(1.00, 0.00, -0.00, -1.00, 0.0, 33.0)"><text xml:space="preserve" font-family="Helvetica-Light,Helvetica" font-size="27.6" fill="#FEFFFF" transform="matrix(1.00, 0.00, -0.00, -1.00, 0.0, 7.9)">•</text><text xml:space="preserve" font-family="Helvetica-Light,Helvetica" font-size="36.9" fill="#FEFFFF" transform="matrix(1.00, 0.00, -0.00, -1.00, 34.0, 4.5)">D</text><text xml:space="preserve" font-family="Helvetica-Light,Helvetica" font-size="36.9" fill="#FEFFFF" transform="matrix(1.00, 0.00, -0.00, -1.00, 60.6, 4.5)">e</text><text xml:space="preserve" font-family="Helvetica-Light,Helvetica" font-size="36.9" fill="#FEFFFF" transform="matrix(1.00, 0.00, -0.00, -1.00, 81.1, 4.5)">v</text><text xml:space="preserve" font-family="Helvetica-Light,Helvetica" font-size="36.9" fill="#FEFFFF" transform="matrix(1.00, 0.00, -0.00, -1.00, 99.5, 4.5)">i</text><text xml:space="preserve" font-family="Helvetica-Light,Helvetica" font-size="36.9" fill="#FEFFFF" transform="matrix(1.00, 0.00, -0.00, -1.00, 107.7, 4.5)">c</text><text xml:space="preserve" font-family="Helvetica-Light,Helvetica" font-size="36.9" fill="#FEFFFF" transform="matrix(1.00, 0.00, -0.00, -1.00, 128.2, 4.5)">e</text><text xml:space="preserve" font-family="Helvetica-Light,Helvetica" font-size="36.9" fill="#FEFFFF" transform="matrix(1.00, 0.00, -0.00, -1.00, 148.7, 4.5)"> </text><text xml:space="preserve" font-family="Helvetica-Light,Helvetica" font-size="36.9" fill="#FEFFFF" transform="matrix(1.00, 0.00, -0.00, -1.00, 158.9, 4.5)">O</text><text xml:space="preserve" font-family="Helvetica-Light,Helvetica" font-size="36.9" fill="#FEFFFF" transform="matrix(1.00, 0.00, -0.00, -1.00, 187.6, 4.5)">r</text><text xml:space="preserve" font-family="Helvetica-Light,Helvetica" font-size="36.9" fill="#FEFFFF" transform="matrix(1.00, 0.00, -0.00, -1.00, 199.9, 4.5)">i</text><text xml:space="preserve" font-family="Helvetica-Light,Helvetica" font-size="36.9" fill="#FEFFFF" transform="matrix(1.00, 0.00, -0.00, -1.00, 208.0, 4.5)">e</text><text xml:space="preserve" font-family="Helvetica-Light,Helvetica" font-size="36.9" fill="#FEFFFF" transform="matrix(1.00, 0.00, -0.00, -1.00, 228.5, 4.5)">n</text><text xml:space="preserve" font-family="Helvetica-Light,Helvetica" font-size="36.9" fill="#FEFFFF" transform="matrix(1.00, 0.00, -0.00, -1.00, 249.0, 4.5)">t</text><text xml:space="preserve" font-family="Helvetica-Light,Helvetica" font-size="36.9" fill="#FEFFFF" transform="matrix(1.00, 0.00, -0.00, -1.00, 259.3, 4.5)">a</text><text xml:space="preserve" font-family="Helvetica-Light,Helvetica" font-size="36.9" fill="#FEFFFF" transform="matrix(1.00, 0.00, -0.00, -1.00, 279.8, 4.5)">t</text><text xml:space="preserve" font-family="Helvetica-Light,Helvetica" font-size="36.9" fill="#FEFFFF" transform="matrix(1.00, 0.00, -0.00, -1.00, 290.0, 4.5)">i</text><text xml:space="preserve" font-family="Helvetica-Light,Helvetica" font-size="36.9" fill="#FEFFFF" transform="matrix(1.00, 0.00, -0.00, -1.00, 298.2, 4.5)">o</text><text xml:space="preserve" font-family="Helvetica-Light,Helvetica" font-size="36.9" fill="#FEFFFF" transform="matrix(1.00, 0.00, -0.00, -1.00, 318.7, 4.5)">n</text><text xml:space="preserve" font-family="Helvetica-Light,Helvetica" font-size="36.9" fill="#FEFFFF" transform="matrix(1.00, 0.00, -0.00, -1.00, 339.2, 4.5)"> </text><text xml:space="preserve" font-family="Helvetica-Light,Helvetica" font-size="36.9" fill="#FEFFFF" transform="matrix(1.00, 0.00, -0.00, -1.00, 349.4, 4.5)">A</text><text xml:space="preserve" font-family="Helvetica-Light,Helvetica" font-size="36.9" fill="#FEFFFF" transform="matrix(1.00, 0.00, -0.00, -1.00, 374.0, 4.5)">P</text><text xml:space="preserve" font-family="Helvetica-Light,Helvetica" font-size="36.9" fill="#FEFFFF" transform="matrix(1.00, 0.00, -0.00, -1.00, 396.5, 4.5)">I</text></g></svg>