<?xml version="1.0" encoding="UTF-8" standalone="no"?><svg xmlns="http://www.w3.org/2000/svg" xmlns:xlink="http://www.w3.org/1999/xlink" clip-rule="evenodd" stroke-miterlimit="10" viewBox="0 0 1024 768"><desc>SVG generated by Keynote</desc><defs></defs><g transform="matrix(1.00, 0.00, -0.00, -1.00, 0.0, 768.0)"><path d="M 0.0 768.0 L 1024.0 768.0 L 1024.0 0.0 L 0.0 0.0 Z M 0.0 768.0 " fill="#961817"></path><text xml:space="preserve" font-family="Helvetica-Light,Helvetica" font-size="80.0" fill="#FEFFFF" transform="matrix(1.00, 0.00, -0.00, -1.00, 100.0, 633.4)">H</text><text xml:space="preserve" font-family="Helvetica-Light,Helvetica" font-size="80.0" fill="#FEFFFF" transform="matrix(1.00, 0.00, -0.00, -1.00, 157.8, 633.4)">a</text><text xml:space="preserve" font-family="Helvetica-Light,Helvetica" font-size="80.0" fill="#FEFFFF" transform="matrix(1.00, 0.00, -0.00, -1.00, 202.2, 633.4)">r</text><text xml:space="preserve" font-family="Helvetica-Light,Helvetica" font-size="80.0" fill="#FEFFFF" transform="matrix(1.00, 0.00, -0.00, -1.00, 227.4, 633.4)">d</text><text xml:space="preserve" font-family="Helvetica-Light,Helvetica" font-size="80.0" fill="#FEFFFF" transform="matrix(1.00, 0.00, -0.00, -1.00, 276.3, 633.4)">w</text><text xml:space="preserve" font-family="Helvetica-Light,Helvetica" font-size="80.0" fill="#FEFFFF" transform="matrix(1.00, 0.00, -0.00, -1.00, 334.1, 633.4)">a</text><text xml:space="preserve" font-family="Helvetica-Light,Helvetica" font-size="80.0" fill="#FEFFFF" transform="matrix(1.00, 0.00, -0.00, -1.00, 378.6, 633.4)">r</text><text xml:space="preserve" font-family="Helvetica-Light,Helvetica" font-size="80.0" fill="#FEFFFF" transform="matrix(1.00, 0.00, -0.00, -1.00, 403.8, 633.4)">e</text><text xml:space="preserve" font-family="Helvetica-Light,Helvetica" font-size="80.0" fill="#FEFFFF" transform="matrix(1.00, 0.00, -0.00, -1.00, 448.2, 633.4)"> </text><text xml:space="preserve" font-family="Helvetica-Light,Helvetica" font-size="80.0" fill="#FEFFFF" transform="matrix(1.00, 0.00, -0.00, -1.00, 470.5, 633.4)">A</text><text xml:space="preserve" font-family="Helvetica-Light,Helvetica" font-size="80.0" fill="#FEFFFF" transform="matrix(1.00, 0.00, -0.00, -1.00, 523.8, 633.4)">c</text><text xml:space="preserve" font-family="Helvetica-Light,Helvetica" font-size="80.0" fill="#FEFFFF" transform="matrix(1.00, 0.00, -0.00, -1.00, 568.3, 633.4)">c</text><text xml:space="preserve" font-family="Helvetica-Light,Helvetica" font-size="80.0" fill="#FEFFFF" transform="matrix(1.00, 0.00, -0.00, -1.00, 612.8, 633.4)">e</text><text xml:space="preserve" font-family="Helvetica-Light,Helvetica" font-size="80.0" fill="#FEFFFF" transform="matrix(1.00, 0.00, -0.00, -1.00, 657.3, 633.4)">s</text><text xml:space="preserve" font-family="Helvetica-Light,Helvetica" font-size="80.0" fill="#FEFFFF" transform="matrix(1.00, 0.00, -0.00, -1.00, 697.3, 633.4)">s</text><text xml:space="preserve" font-family="Helvetica-Light,Helvetica" font-size="80.0" fill="#FEFFFF" transform="matrix(1.00, 0.00, -0.00, -1.00, 737.3, 633.4)"> </text><text xml:space="preserve" font-family="Helvetica-Light,Helvetica" font-size="80.0" fill="#FEFFFF" transform="matrix(1.00, 0.00, -0.00, -1.00, 759.5, 633.4)">A</text><text xml:space="preserve" font-family="Helvetica-Light,Helvetica" font-size="80.0" fill="#FEFFFF" transform="matrix(1.00, 0.00, -0.00, -1.00, 812.9, 633.4)">P</text><text xml:space="preserve" font-family="Helvetica-Light,Helvetica" font-size="80.0" fill="#FEFFFF" transform="matrix(1.00, 0.00, -0.00, -1.00, 861.8, 633.4)">I</text><text xml:space="preserve" font-family="Helvetica-Light,Helvetica" font-size="80.0" fill="#FEFFFF" transform="matrix(1.00, 0.00, -0.00, -1.00, 884.0, 633.4)">s</text><text xml:space="preserve" font-family="Helvetica-Light,Helvetica" font-size="27.6" fill="#FEFFFF" transform="matrix(1.00, 0.00, -0.00, -1.00, 79.0, 549.9)">•</text><text xml:space="preserve" font-family="Helvetica-Light,Helvetica" font-size="36.9" fill="#FEFFFF" transform="matrix(1.00, 0.00, -0.00, -1.00, 113.0, 546.5)">A</text><text xml:space="preserve" font-family="Helvetica-Light,Helvetica" font-size="36.9" fill="#FEFFFF" transform="matrix(1.00, 0.00, -0.00, -1.00, 137.5, 546.5)">m</text><text xml:space="preserve" font-family="Helvetica-Light,Helvetica" font-size="36.9" fill="#FEFFFF" transform="matrix(1.00, 0.00, -0.00, -1.00, 168.2, 546.5)">b</text><text xml:space="preserve" font-family="Helvetica-Light,Helvetica" font-size="36.9" fill="#FEFFFF" transform="matrix(1.00, 0.00, -0.00, -1.00, 190.8, 546.5)">i</text><text xml:space="preserve" font-family="Helvetica-Light,Helvetica" font-size="36.9" fill="#FEFFFF" transform="matrix(1.00, 0.00, -0.00, -1.00, 198.9, 546.5)">e</text><text xml:space="preserve" font-family="Helvetica-Light,Helvetica" font-size="36.9" fill="#FEFFFF" transform="matrix(1.00, 0.00, -0.00, -1.00, 219.4, 546.5)">n</text><text xml:space="preserve" font-family="Helvetica-Light,Helvetica" font-size="36.9" fill="#FEFFFF" transform="matrix(1.00, 0.00, -0.00, -1.00, 239.9, 546.5)">t</text><text xml:space="preserve" font-family="Helvetica-Light,Helvetica" font-size="36.9" fill="#FEFFFF" transform="matrix(1.00, 0.00, -0.00, -1.00, 250.2, 546.5)"> </text><text xml:space="preserve" font-family="Helvetica-Light,Helvetica" font-size="36.9" fill="#FEFFFF" transform="matrix(1.00, 0.00, -0.00, -1.00, 260.4, 546.5)">L</text><text xml:space="preserve" font-family="Helvetica-Light,Helvetica" font-size="36.9" fill="#FEFFFF" transform="matrix(1.00, 0.00, -0.00, -1.00, 280.9, 546.5)">i</text><text xml:space="preserve" font-family="Helvetica-Light,Helvetica" font-size="36.9" fill="#FEFFFF" transform="matrix(1.00, 0.00, -0.00, -1.00, 289.1, 546.5)">g</text><text xml:space="preserve" font-family="Helvetica-Light,Helvetica" font-size="36.9" fill="#FEFFFF" transform="matrix(1.00, 0.00, -0.00, -1.00, 311.6, 546.5)">h</text><text xml:space="preserve" font-family="Helvetica-Light,Helvetica" font-size="36.9" fill="#FEFFFF" transform="matrix(1.00, 0.00, -0.00, -1.00, 332.1, 546.5)">t</text><text xml:space="preserve" font-family="Helvetica-Light,Helvetica" font-size="36.9" fill="#FEFFFF" transform="matrix(1.00, 0.00, -0.00, -1.00, 342.4, 546.5)"> </text><text xml:space="preserve" font-family="Helvetica-Light,Helvetica" font-size="36.9" fill="#FEFFFF" transform="matrix(1.00, 0.00, -0.00, -1.00, 352.6, 546.5)">S</text><text xml:space="preserve" font-family="Helvetica-Light,Helvetica" font-size="36.9" fill="#FEFFFF" transform="matrix(1.00, 0.00, -0.00, -1.00, 375.1, 546.5)">e</text><text xml:space="preserve" font-family="Helvetica-Light,Helvetica" font-size="36.9" fill="#FEFFFF" transform="matrix(1.00, 0.00, -0.00, -1.00, 395.6, 546.5)">n</text><text xml:space="preserve" font-family="Helvetica-Light,Helvetica" font-size="36.9" fill="#FEFFFF" transform="matrix(1.00, 0.00, -0.00, -1.00, 416.1, 546.5)">s</text><text xml:space="preserve" font-family="Helvetica-Light,Helvetica" font-size="36.9" fill="#FEFFFF" transform="matrix(1.00, 0.00, -0.00, -1.00, 434.6, 546.5)">o</text><text xml:space="preserve" font-family="Helvetica-Light,Helvetica" font-size="36.9" fill="#FEFFFF" transform="matrix(1.00, 0.00, -0.00, -1.00, 455.0, 546.5)">r</text><text xml:space="preserve" font-family="Helvetica-Light,Helvetica" font-size="36.9" fill="#FEFFFF" transform="matrix(1.00, 0.00, -0.00, -1.00, 467.3, 546.5)"> </text><text xml:space="preserve" font-family="Helvetica-Light,Helvetica" font-size="36.9" fill="#FEFFFF" transform="matrix(1.00, 0.00, -0.00, -1.00, 477.6, 546.5)">A</text><text xml:space="preserve" font-family="Helvetica-Light,Helvetica" font-size="36.9" fill="#FEFFFF" transform="matrix(1.00, 0.00, -0.00, -1.00, 502.2, 546.5)">P</text><text xml:space="preserve" font-family="Helvetica-Light,Helvetica" font-size="36.9" fill="#FEFFFF" transform="matrix(1.00, 0.00, -0.00, -1.00, 524.7, 546.5)">I</text><text xml:space="preserve" font-family="Helvetica-Light,Helvetica" font-size="27.6" fill="#FEFFFF" transform="matrix(1.00, 0.00, -0.00, -1.00, 79.0, 487.5)">•</text><text xml:space="preserve" font-family="Helvetica-Light,Helvetica" font-size="36.9" fill="#FEFFFF" transform="matrix(1.00, 0.00, -0.00, -1.00, 113.0, 484.1)">B</text><text xml:space="preserve" font-family="Helvetica-Light,Helvetica" font-size="36.9" fill="#FEFFFF" transform="matrix(1.00, 0.00, -0.00, -1.00, 137.5, 484.1)">a</text><text xml:space="preserve" font-family="Helvetica-Light,Helvetica" font-size="36.9" fill="#FEFFFF" transform="matrix(1.00, 0.00, -0.00, -1.00, 158.0, 484.1)">t</text><text xml:space="preserve" font-family="Helvetica-Light,Helvetica" font-size="36.9" fill="#FEFFFF" transform="matrix(1.00, 0.00, -0.00, -1.00, 168.3, 484.1)">t</text><text xml:space="preserve" font-family="Helvetica-Light,Helvetica" font-size="36.9" fill="#FEFFFF" transform="matrix(1.00, 0.00, -0.00, -1.00, 178.5, 484.1)">e</text><text xml:space="preserve" font-family="Helvetica-Light,Helvetica" font-size="36.9" fill="#FEFFFF" transform="matrix(1.00, 0.00, -0.00, -1.00, 199.0, 484.1)">r</text><text xml:space="preserve" font-family="Helvetica-Light,Helvetica" font-size="36.9" fill="#FEFFFF" transform="matrix(1.00, 0.00, -0.00, -1.00, 212.0, 484.1)">y</text><text xml:space="preserve" font-family="Helvetica-Light,Helvetica" font-size="36.9" fill="#FEFFFF" transform="matrix(1.00, 0.00, -0.00, -1.00, 230.4, 484.1)"> </text><text xml:space="preserve" font-family="Helvetica-Light,Helvetica" font-size="36.9" fill="#FEFFFF" transform="matrix(1.00, 0.00, -0.00, -1.00, 240.6, 484.1)">S</text><text xml:space="preserve" font-family="Helvetica-Light,Helvetica" font-size="36.9" fill="#FEFFFF" transform="matrix(1.00, 0.00, -0.00, -1.00, 263.2, 484.1)">t</text><text xml:space="preserve" font-family="Helvetica-Light,Helvetica" font-size="36.9" fill="#FEFFFF" transform="matrix(1.00, 0.00, -0.00, -1.00, 273.4, 484.1)">a</text><text xml:space="preserve" font-family="Helvetica-Light,Helvetica" font-size="36.9" fill="#FEFFFF" transform="matrix(1.00, 0.00, -0.00, -1.00, 293.9, 484.1)">t</text><text xml:space="preserve" font-family="Helvetica-Light,Helvetica" font-size="36.9" fill="#FEFFFF" transform="matrix(1.00, 0.00, -0.00, -1.00, 304.1, 484.1)">u</text><text xml:space="preserve" font-family="Helvetica-Light,Helvetica" font-size="36.9" fill="#FEFFFF" transform="matrix(1.00, 0.00, -0.00, -1.00, 324.6, 484.1)">s</text><text xml:space="preserve" font-family="Helvetica-Light,Helvetica" font-size="36.9" fill="#FEFFFF" transform="matrix(1.00, 0.00, -0.00, -1.00, 343.1, 484.1)"> </text><text xml:space="preserve" font-family="Helvetica-Light,Helvetica" font-size="36.9" fill="#FEFFFF" transform="matrix(1.00, 0.00, -0.00, -1.00, 353.3, 484.1)">A</text><text xml:space="preserve" font-family="Helvetica-Light,Helvetica" font-size="36.9" fill="#FEFFFF" transform="matrix(1.00, 0.00, -0.00, -1.00, 377.9, 484.1)">P</text><text xml:space="preserve" font-family="Helvetica-Light,Helvetica" font-size="36.9" fill="#FEFFFF" transform="matrix(1.00, 0.00, -0.00, -1.00, 400.4, 484.1)">I</text><text xml:space="preserve" font-family="Helvetica-Light,Helvetica" font-size="27.6" fill="#FEFFFF" transform="matrix(1.00, 0.00, -0.00, -1.00, 79.0, 425.1)">•</text><text xml:space="preserve" font-family="Helvetica-Light,Helvetica" font-size="36.9" fill="#FEFFFF" transform="matrix(1.00, 0.00, -0.00, -1.00, 113.0, 421.7)">G</text><text xml:space="preserve" font-family="Helvetica-Light,Helvetica" font-size="36.9" fill="#FEFFFF" transform="matrix(1.00, 0.00, -0.00, -1.00, 141.6, 421.7)">e</text><text xml:space="preserve" font-family="Helvetica-Light,Helvetica" font-size="36.9" fill="#FEFFFF" transform="matrix(1.00, 0.00, -0.00, -1.00, 162.1, 421.7)">o</text><text xml:space="preserve" font-family="Helvetica-Light,Helvetica" font-size="36.9" fill="#FEFFFF" transform="matrix(1.00, 0.00, -0.00, -1.00, 182.6, 421.7)">l</text><text xml:space="preserve" font-family="Helvetica-Light,Helvetica" font-size="36.9" fill="#FEFFFF" transform="matrix(1.00, 0.00, -0.00, -1.00, 190.8, 421.7)">o</text><text xml:space="preserve" font-family="Helvetica-Light,Helvetica" font-size="36.9" fill="#FEFFFF" transform="matrix(1.00, 0.00, -0.00, -1.00, 211.3, 421.7)">c</text><text xml:space="preserve" font-family="Helvetica-Light,Helvetica" font-size="36.9" fill="#FEFFFF" transform="matrix(1.00, 0.00, -0.00, -1.00, 231.8, 421.7)">a</text><text xml:space="preserve" font-family="Helvetica-Light,Helvetica" font-size="36.9" fill="#FEFFFF" transform="matrix(1.00, 0.00, -0.00, -1.00, 252.3, 421.7)">t</text><text xml:space="preserve" font-family="Helvetica-Light,Helvetica" font-size="36.9" fill="#FEFFFF" transform="matrix(1.00, 0.00, -0.00, -1.00, 262.5, 421.7)">i</text><text xml:space="preserve" font-family="Helvetica-Light,Helvetica" font-size="36.9" fill="#FEFFFF" transform="matrix(1.00, 0.00, -0.00, -1.00, 270.7, 421.7)">o</text><text xml:space="preserve" font-family="Helvetica-Light,Helvetica" font-size="36.9" fill="#FEFFFF" transform="matrix(1.00, 0.00, -0.00, -1.00, 291.2, 421.7)">n</text><text xml:space="preserve" font-family="Helvetica-Light,Helvetica" font-size="36.9" fill="#FEFFFF" transform="matrix(1.00, 0.00, -0.00, -1.00, 311.7, 421.7)"> </text><text xml:space="preserve" font-family="Helvetica-Light,Helvetica" font-size="36.9" fill="#FEFFFF" transform="matrix(1.00, 0.00, -0.00, -1.00, 321.9, 421.7)">A</text><text xml:space="preserve" font-family="Helvetica-Light,Helvetica" font-size="36.9" fill="#FEFFFF" transform="matrix(1.00, 0.00, -0.00, -1.00, 346.5, 421.7)">P</text><text xml:space="preserve" font-family="Helvetica-Light,Helvetica" font-size="36.9" fill="#FEFFFF" transform="matrix(1.00, 0.00, -0.00, -1.00, 369.1, 421.7)">I</text><text xml:space="preserve" font-family="Helvetica-Light,Helvetica" font-size="27.6" fill="#FEFFFF" transform="matrix(1.00, 0.00, -0.00, -1.00, 79.0, 362.7)">•</text><text xml:space="preserve" font-family="Helvetica-Light,Helvetica" font-size="36.9" fill="#FEFFFF" transform="matrix(1.00, 0.00, -0.00, -1.00, 113.0, 359.3)">P</text><text xml:space="preserve" font-family="Helvetica-Light,Helvetica" font-size="36.9" fill="#FEFFFF" transform="matrix(1.00, 0.00, -0.00, -1.00, 135.5, 359.3)">o</text><text xml:space="preserve" font-family="Helvetica-Light,Helvetica" font-size="36.9" fill="#FEFFFF" transform="matrix(1.00, 0.00, -0.00, -1.00, 156.0, 359.3)">i</text><text xml:space="preserve" font-family="Helvetica-Light,Helvetica" font-size="36.9" fill="#FEFFFF" transform="matrix(1.00, 0.00, -0.00, -1.00, 164.1, 359.3)">n</text><text xml:space="preserve" font-family="Helvetica-Light,Helvetica" font-size="36.9" fill="#FEFFFF" transform="matrix(1.00, 0.00, -0.00, -1.00, 184.6, 359.3)">t</text><text xml:space="preserve" font-family="Helvetica-Light,Helvetica" font-size="36.9" fill="#FEFFFF" transform="matrix(1.00, 0.00, -0.00, -1.00, 194.9, 359.3)">e</text><text xml:space="preserve" font-family="Helvetica-Light,Helvetica" font-size="36.9" fill="#FEFFFF" transform="matrix(1.00, 0.00, -0.00, -1.00, 215.4, 359.3)">r</text><text xml:space="preserve" font-family="Helvetica-Light,Helvetica" font-size="36.9" fill="#FEFFFF" transform="matrix(1.00, 0.00, -0.00, -1.00, 227.7, 359.3)"> </text><text xml:space="preserve" font-family="Helvetica-Light,Helvetica" font-size="36.9" fill="#FEFFFF" transform="matrix(1.00, 0.00, -0.00, -1.00, 237.9, 359.3)">L</text><text xml:space="preserve" font-family="Helvetica-Light,Helvetica" font-size="36.9" fill="#FEFFFF" transform="matrix(1.00, 0.00, -0.00, -1.00, 258.4, 359.3)">o</text><text xml:space="preserve" font-family="Helvetica-Light,Helvetica" font-size="36.9" fill="#FEFFFF" transform="matrix(1.00, 0.00, -0.00, -1.00, 278.9, 359.3)">c</text><text xml:space="preserve" font-family="Helvetica-Light,Helvetica" font-size="36.9" fill="#FEFFFF" transform="matrix(1.00, 0.00, -0.00, -1.00, 299.4, 359.3)">k</text><text xml:space="preserve" font-family="Helvetica-Light,Helvetica" font-size="36.9" fill="#FEFFFF" transform="matrix(1.00, 0.00, -0.00, -1.00, 317.8, 359.3)"> </text><text xml:space="preserve" font-family="Helvetica-Light,Helvetica" font-size="36.9" fill="#FEFFFF" transform="matrix(1.00, 0.00, -0.00, -1.00, 328.1, 359.3)">A</text><text xml:space="preserve" font-family="Helvetica-Light,Helvetica" font-size="36.9" fill="#FEFFFF" transform="matrix(1.00, 0.00, -0.00, -1.00, 352.7, 359.3)">P</text><text xml:space="preserve" font-family="Helvetica-Light,Helvetica" font-size="36.9" fill="#FEFFFF" transform="matrix(1.00, 0.00, -0.00, -1.00, 375.2, 359.3)">I</text><text xml:space="preserve" font-family="Helvetica-Light,Helvetica" font-size="27.6" fill="#FEFFFF" transform="matrix(1.00, 0.00, -0.00, -1.00, 79.0, 300.3)">•</text><text xml:space="preserve" font-family="Helvetica-Light,Helvetica" font-size="36.9" fill="#FEFFFF" transform="matrix(1.00, 0.00, -0.00, -1.00, 113.0, 296.9)">P</text><text xml:space="preserve" font-family="Helvetica-Light,Helvetica" font-size="36.9" fill="#FEFFFF" transform="matrix(1.00, 0.00, -0.00, -1.00, 135.5, 296.9)">r</text><text xml:space="preserve" font-family="Helvetica-Light,Helvetica" font-size="36.9" fill="#FEFFFF" transform="matrix(1.00, 0.00, -0.00, -1.00, 147.1, 296.9)">o</text><text xml:space="preserve" font-family="Helvetica-Light,Helvetica" font-size="36.9" fill="#FEFFFF" transform="matrix(1.00, 0.00, -0.00, -1.00, 167.6, 296.9)">x</text><text xml:space="preserve" font-family="Helvetica-Light,Helvetica" font-size="36.9" fill="#FEFFFF" transform="matrix(1.00, 0.00, -0.00, -1.00, 186.0, 296.9)">i</text><text xml:space="preserve" font-family="Helvetica-Light,Helvetica" font-size="36.9" fill="#FEFFFF" transform="matrix(1.00, 0.00, -0.00, -1.00, 194.2, 296.9)">m</text><text xml:space="preserve" font-family="Helvetica-Light,Helvetica" font-size="36.9" fill="#FEFFFF" transform="matrix(1.00, 0.00, -0.00, -1.00, 224.9, 296.9)">i</text><text xml:space="preserve" font-family="Helvetica-Light,Helvetica" font-size="36.9" fill="#FEFFFF" transform="matrix(1.00, 0.00, -0.00, -1.00, 233.1, 296.9)">t</text><text xml:space="preserve" font-family="Helvetica-Light,Helvetica" font-size="36.9" fill="#FEFFFF" transform="matrix(1.00, 0.00, -0.00, -1.00, 243.3, 296.9)">y</text><text xml:space="preserve" font-family="Helvetica-Light,Helvetica" font-size="36.9" fill="#FEFFFF" transform="matrix(1.00, 0.00, -0.00, -1.00, 261.8, 296.9)"> </text><text xml:space="preserve" font-family="Helvetica-Light,Helvetica" font-size="36.9" fill="#FEFFFF" transform="matrix(1.00, 0.00, -0.00, -1.00, 272.0, 296.9)">A</text><text xml:space="preserve" font-family="Helvetica-Light,Helvetica" font-size="36.9" fill="#FEFFFF" transform="matrix(1.00, 0.00, -0.00, -1.00, 296.6, 296.9)">P</text><text xml:space="preserve" font-family="Helvetica-Light,Helvetica" font-size="36.9" fill="#FEFFFF" transform="matrix(1.00, 0.00, -0.00, -1.00, 319.1, 296.9)">I</text><text xml:space="preserve" font-family="Helvetica-Light,Helvetica" font-size="27.6" fill="#FEFFFF" transform="matrix(1.00, 0.00, -0.00, -1.00, 79.0, 237.9)">•</text><text xml:space="preserve" font-family="Helvetica-Light,Helvetica" font-size="36.9" fill="#FEFFFF" transform="matrix(1.00, 0.00, -0.00, -1.00, 113.0, 234.5)">D</text><text xml:space="preserve" font-family="Helvetica-Light,Helvetica" font-size="36.9" fill="#FEFFFF" transform="matrix(1.00, 0.00, -0.00, -1.00, 139.6, 234.5)">e</text><text xml:space="preserve" font-family="Helvetica-Light,Helvetica" font-size="36.9" fill="#FEFFFF" transform="matrix(1.00, 0.00, -0.00, -1.00, 160.1, 234.5)">v</text><text xml:space="preserve" font-family="Helvetica-Light,Helvetica" font-size="36.9" fill="#FEFFFF" transform="matrix(1.00, 0.00, -0.00, -1.00, 178.5, 234.5)">i</text><text xml:space="preserve" font-family="Helvetica-Light,Helvetica" font-size="36.9" fill="#FEFFFF" transform="matrix(1.00, 0.00, -0.00, -1.00, 186.7, 234.5)">c</text><text xml:space="preserve" font-family="Helvetica-Light,Helvetica" font-size="36.9" fill="#FEFFFF" transform="matrix(1.00, 0.00, -0.00, -1.00, 207.2, 234.5)">e</text><text xml:space="preserve" font-family="Helvetica-Light,Helvetica" font-size="36.9" fill="#FEFFFF" transform="matrix(1.00, 0.00, -0.00, -1.00, 227.7, 234.5)"> </text><text xml:space="preserve" font-family="Helvetica-Light,Helvetica" font-size="36.9" fill="#FEFFFF" transform="matrix(1.00, 0.00, -0.00, -1.00, 237.9, 234.5)">O</text><text xml:space="preserve" font-family="Helvetica-Light,Helvetica" font-size="36.9" fill="#FEFFFF" transform="matrix(1.00, 0.00, -0.00, -1.00, 266.6, 234.5)">r</text><text xml:space="preserve" font-family="Helvetica-Light,Helvetica" font-size="36.9" fill="#FEFFFF" transform="matrix(1.00, 0.00, -0.00, -1.00, 278.9, 234.5)">i</text><text xml:space="preserve" font-family="Helvetica-Light,Helvetica" font-size="36.9" fill="#FEFFFF" transform="matrix(1.00, 0.00, -0.00, -1.00, 287.0, 234.5)">e</text><text xml:space="preserve" font-family="Helvetica-Light,Helvetica" font-size="36.9" fill="#FEFFFF" transform="matrix(1.00, 0.00, -0.00, -1.00, 307.5, 234.5)">n</text><text xml:space="preserve" font-family="Helvetica-Light,Helvetica" font-size="36.9" fill="#FEFFFF" transform="matrix(1.00, 0.00, -0.00, -1.00, 328.0, 234.5)">t</text><text xml:space="preserve" font-family="Helvetica-Light,Helvetica" font-size="36.9" fill="#FEFFFF" transform="matrix(1.00, 0.00, -0.00, -1.00, 338.3, 234.5)">a</text><text xml:space="preserve" font-family="Helvetica-Light,Helvetica" font-size="36.9" fill="#FEFFFF" transform="matrix(1.00, 0.00, -0.00, -1.00, 358.8, 234.5)">t</text><text xml:space="preserve" font-family="Helvetica-Light,Helvetica" font-size="36.9" fill="#FEFFFF" transform="matrix(1.00, 0.00, -0.00, -1.00, 369.0, 234.5)">i</text><text xml:space="preserve" font-family="Helvetica-Light,Helvetica" font-size="36.9" fill="#FEFFFF" transform="matrix(1.00, 0.00, -0.00, -1.00, 377.2, 234.5)">o</text><text xml:space="preserve" font-family="Helvetica-Light,Helvetica" font-size="36.9" fill="#FEFFFF" transform="matrix(1.00, 0.00, -0.00, -1.00, 397.7, 234.5)">n</text><text xml:space="preserve" font-family="Helvetica-Light,Helvetica" font-size="36.9" fill="#FEFFFF" transform="matrix(1.00, 0.00, -0.00, -1.00, 418.2, 234.5)"> </text><text xml:space="preserve" font-family="Helvetica-Light,Helvetica" font-size="36.9" fill="#FEFFFF" transform="matrix(1.00, 0.00, -0.00, -1.00, 428.4, 234.5)">A</text><text xml:space="preserve" font-family="Helvetica-Light,Helvetica" font-size="36.9" fill="#FEFFFF" transform="matrix(1.00, 0.00, -0.00, -1.00, 453.0, 234.5)">P</text><text xml:space="preserve" font-family="Helvetica-Light,Helvetica" font-size="36.9" fill="#FEFFFF" transform="matrix(1.00, 0.00, -0.00, -1.00, 475.5, 234.5)">I</text><text xml:space="preserve" font-family="Helvetica-Light,Helvetica" font-size="27.6" fill="#FEFFFF" transform="matrix(1.00, 0.00, -0.00, -1.00, 79.0, 175.5)">•</text><text xml:space="preserve" font-family="Helvetica-Light,Helvetica" font-size="36.9" fill="#FEFFFF" transform="matrix(1.00, 0.00, -0.00, -1.00, 113.0, 172.1)">S</text><text xml:space="preserve" font-family="Helvetica-Light,Helvetica" font-size="36.9" fill="#FEFFFF" transform="matrix(1.00, 0.00, -0.00, -1.00, 135.5, 172.1)">c</text><text xml:space="preserve" font-family="Helvetica-Light,Helvetica" font-size="36.9" fill="#FEFFFF" transform="matrix(1.00, 0.00, -0.00, -1.00, 156.0, 172.1)">r</text><text xml:space="preserve" font-family="Helvetica-Light,Helvetica" font-size="36.9" fill="#FEFFFF" transform="matrix(1.00, 0.00, -0.00, -1.00, 167.6, 172.1)">e</text><text xml:space="preserve" font-family="Helvetica-Light,Helvetica" font-size="36.9" fill="#FEFFFF" transform="matrix(1.00, 0.00, -0.00, -1.00, 188.1, 172.1)">e</text><text xml:space="preserve" font-family="Helvetica-Light,Helvetica" font-size="36.9" fill="#FEFFFF" transform="matrix(1.00, 0.00, -0.00, -1.00, 208.6, 172.1)">n</text><text xml:space="preserve" font-family="Helvetica-Light,Helvetica" font-size="36.9" fill="#FEFFFF" transform="matrix(1.00, 0.00, -0.00, -1.00, 229.1, 172.1)"> </text><text xml:space="preserve" font-family="Helvetica-Light,Helvetica" font-size="36.9" fill="#FEFFFF" transform="matrix(1.00, 0.00, -0.00, -1.00, 239.3, 172.1)">O</text><text xml:space="preserve" font-family="Helvetica-Light,Helvetica" font-size="36.9" fill="#FEFFFF" transform="matrix(1.00, 0.00, -0.00, -1.00, 268.0, 172.1)">r</text><text xml:space="preserve" font-family="Helvetica-Light,Helvetica" font-size="36.9" fill="#FEFFFF" transform="matrix(1.00, 0.00, -0.00, -1.00, 280.3, 172.1)">i</text><text xml:space="preserve" font-family="Helvetica-Light,Helvetica" font-size="36.9" fill="#FEFFFF" transform="matrix(1.00, 0.00, -0.00, -1.00, 288.4, 172.1)">e</text><text xml:space="preserve" font-family="Helvetica-Light,Helvetica" font-size="36.9" fill="#FEFFFF" transform="matrix(1.00, 0.00, -0.00, -1.00, 308.9, 172.1)">n</text><text xml:space="preserve" font-family="Helvetica-Light,Helvetica" font-size="36.9" fill="#FEFFFF" transform="matrix(1.00, 0.00, -0.00, -1.00, 329.4, 172.1)">t</text><text xml:space="preserve" font-family="Helvetica-Light,Helvetica" font-size="36.9" fill="#FEFFFF" transform="matrix(1.00, 0.00, -0.00, -1.00, 339.7, 172.1)">a</text><text xml:space="preserve" font-family="Helvetica-Light,Helvetica" font-size="36.9" fill="#FEFFFF" transform="matrix(1.00, 0.00, -0.00, -1.00, 360.2, 172.1)">t</text><text xml:space="preserve" font-family="Helvetica-Light,Helvetica" font-size="36.9" fill="#FEFFFF" transform="matrix(1.00, 0.00, -0.00, -1.00, 370.4, 172.1)">i</text><text xml:space="preserve" font-family="Helvetica-Light,Helvetica" font-size="36.9" fill="#FEFFFF" transform="matrix(1.00, 0.00, -0.00, -1.00, 378.6, 172.1)">o</text><text xml:space="preserve" font-family="Helvetica-Light,Helvetica" font-size="36.9" fill="#FEFFFF" transform="matrix(1.00, 0.00, -0.00, -1.00, 399.1, 172.1)">n</text><text xml:space="preserve" font-family="Helvetica-Light,Helvetica" font-size="36.9" fill="#FEFFFF" transform="matrix(1.00, 0.00, -0.00, -1.00, 419.6, 172.1)"> </text><text xml:space="preserve" font-family="Helvetica-Light,Helvetica" font-size="36.9" fill="#FEFFFF" transform="matrix(1.00, 0.00, -0.00, -1.00, 429.8, 172.1)">A</text><text xml:space="preserve" font-family="Helvetica-Light,Helvetica" font-size="36.9" fill="#FEFFFF" transform="matrix(1.00, 0.00, -0.00, -1.00, 454.4, 172.1)">P</text><text xml:space="preserve" font-family="Helvetica-Light,Helvetica" font-size="36.9" fill="#FEFFFF" transform="matrix(1.00, 0.00, -0.00, -1.00, 476.9, 172.1)">I</text><text xml:space="preserve" font-family="Helvetica-Light,Helvetica" font-size="27.6" fill="#FEFFFF" transform="matrix(1.00, 0.00, -0.00, -1.00, 79.0, 113.1)">•</text><text xml:space="preserve" font-family="Helvetica-Light,Helvetica" font-size="36.9" fill="#FEFFFF" transform="matrix(1.00, 0.00, -0.00, -1.00, 113.0, 109.7)">V</text><text xml:space="preserve" font-family="Helvetica-Light,Helvetica" font-size="36.9" fill="#FEFFFF" transform="matrix(1.00, 0.00, -0.00, -1.00, 134.8, 109.7)">i</text><text xml:space="preserve" font-family="Helvetica-Light,Helvetica" font-size="36.9" fill="#FEFFFF" transform="matrix(1.00, 0.00, -0.00, -1.00, 143.0, 109.7)">b</text><text xml:space="preserve" font-family="Helvetica-Light,Helvetica" font-size="36.9" fill="#FEFFFF" transform="matrix(1.00, 0.00, -0.00, -1.00, 165.5, 109.7)">r</text><text xml:space="preserve" font-family="Helvetica-Light,Helvetica" font-size="36.9" fill="#FEFFFF" transform="matrix(1.00, 0.00, -0.00, -1.00, 177.8, 109.7)">a</text><text xml:space="preserve" font-family="Helvetica-Light,Helvetica" font-size="36.9" fill="#FEFFFF" transform="matrix(1.00, 0.00, -0.00, -1.00, 198.3, 109.7)">t</text><text xml:space="preserve" font-family="Helvetica-Light,Helvetica" font-size="36.9" fill="#FEFFFF" transform="matrix(1.00, 0.00, -0.00, -1.00, 208.5, 109.7)">i</text><text xml:space="preserve" font-family="Helvetica-Light,Helvetica" font-size="36.9" fill="#FEFFFF" transform="matrix(1.00, 0.00, -0.00, -1.00, 216.7, 109.7)">o</text><text xml:space="preserve" font-family="Helvetica-Light,Helvetica" font-size="36.9" fill="#FEFFFF" transform="matrix(1.00, 0.00, -0.00, -1.00, 237.2, 109.7)">n</text><text xml:space="preserve" font-family="Helvetica-Light,Helvetica" font-size="36.9" fill="#FEFFFF" transform="matrix(1.00, 0.00, -0.00, -1.00, 257.7, 109.7)"> </text><text xml:space="preserve" font-family="Helvetica-Light,Helvetica" font-size="36.9" fill="#FEFFFF" transform="matrix(1.00, 0.00, -0.00, -1.00, 267.9, 109.7)">A</text><text xml:space="preserve" font-family="Helvetica-Light,Helvetica" font-size="36.9" fill="#FEFFFF" transform="matrix(1.00, 0.00, -0.00, -1.00, 292.5, 109.7)">P</text><text xml:space="preserve" font-family="Helvetica-Light,Helvetica" font-size="36.9" fill="#FEFFFF" transform="matrix(1.00, 0.00, -0.00, -1.00, 315.1, 109.7)">I</text></g></svg>