<?xml version="1.0" encoding="UTF-8" standalone="no"?><svg xmlns="http://www.w3.org/2000/svg" xmlns:xlink="http://www.w3.org/1999/xlink" clip-rule="evenodd" stroke-miterlimit="10" viewBox="0 0 1024 768"><desc>SVG generated by Keynote</desc><defs></defs><g transform="matrix(1.00, 0.00, -0.00, -1.00, 0.0, 768.0)"><path d="M 0.0 768.0 L 1024.0 768.0 L 1024.0 0.0 L 0.0 0.0 Z M 0.0 768.0 " fill="#FEFFFE"></path><text xml:space="preserve" font-family="HelveticaNeue-Bold,Helvetica Neue" font-weight="bold" font-size="100.0" fill="#5646C1" transform="matrix(1.00, 0.00, -0.00, -1.00, 316.7, 299.5)">b</text><text xml:space="preserve" font-family="HelveticaNeue-Bold,Helvetica Neue" font-weight="bold" font-size="100.0" fill="#5646C1" transform="matrix(1.00, 0.00, -0.00, -1.00, 377.8, 299.5)">r</text><text xml:space="preserve" font-family="HelveticaNeue-Bold,Helvetica Neue" font-weight="bold" font-size="100.0" fill="#5646C1" transform="matrix(1.00, 0.00, -0.00, -1.00, 414.9, 299.5)">o</text><text xml:space="preserve" font-family="HelveticaNeue-Bold,Helvetica Neue" font-weight="bold" font-size="100.0" fill="#5646C1" transform="matrix(1.00, 0.00, -0.00, -1.00, 476.0, 299.5)">w</text><text xml:space="preserve" font-family="HelveticaNeue-Bold,Helvetica Neue" font-weight="bold" font-size="100.0" fill="#5646C1" transform="matrix(1.00, 0.00, -0.00, -1.00, 557.4, 299.5)">s</text><text xml:space="preserve" font-family="HelveticaNeue-Bold,Helvetica Neue" font-weight="bold" font-size="100.0" fill="#5646C1" transform="matrix(1.00, 0.00, -0.00, -1.00, 611.0, 299.5)">e</text><text xml:space="preserve" font-family="HelveticaNeue-Bold,Helvetica Neue" font-weight="bold" font-size="100.0" fill="#5646C1" transform="matrix(1.00, 0.00, -0.00, -1.00, 668.5, 299.5)">r</text><image xlink:href="../../B8F93C8E-21B8-4824-B337-BC99CFA17A4B/assets/D65FBD45ECD65D7CD2EDF5C4E6523D55.png" width="872.00" height="1024.00" transform="matrix(0.18, 0.00, -0.00, -0.18, 125.0, 674.2)"></image><image xlink:href="../../B8F93C8E-21B8-4824-B337-BC99CFA17A4B/assets/7B0730D22B6B7716A162E972CA93455B.png" width="834.00" height="1024.00" transform="matrix(0.19, 0.00, -0.00, -0.19, 779.2, 249.4)"></image><image xlink:href="../../B8F93C8E-21B8-4824-B337-BC99CFA17A4B/assets/CB11DF1466E92B111643D36CF83C82D5.png" width="1121.00" height="1229.00" transform="matrix(0.19, 0.00, -0.00, -0.19, 738.2, 626.9)"></image><image xlink:href="../../B8F93C8E-21B8-4824-B337-BC99CFA17A4B/assets/B50AC98B8D0F8E557001923AF1C95D54.png" width="178.00" height="175.00" transform="matrix(1.00, 0.00, -0.00, -1.00, 62.7, 172.5)"></image><image xlink:href="../../B8F93C8E-21B8-4824-B337-BC99CFA17A4B/assets/457D8BBD4E376C1420B5BC4EAA1E8F36.png" width="200.00" height="200.00" transform="matrix(1.00, 0.00, -0.00, -1.00, 342.0, 239.5)"></image><image xlink:href="../../B8F93C8E-21B8-4824-B337-BC99CFA17A4B/assets/E07FE29114B4A328EA2CD06BCDC1EEDF.png" width="513.00" height="496.00" transform="matrix(0.49, 0.00, -0.00, -0.49, 370.5, 672.2)"></image></g></svg>